<svg id="Layer_1" data-name="Layer 1" xmlns="http://www.w3.org/2000/svg" viewBox="0 0 544.04 778.47">
    <defs>
        <style>
            .cls-1{fill:#000;stroke-width:0}
        </style>
    </defs>
    <path class="cls-1" d="M364.61 293.1c4.73-1.88 9.45-3.79 14.19-5.64 9.85-3.84 19.68-7.74 29.59-11.44 9.3-3.46 18.72-6.63 28.05-10.03 14.39-5.24 28.88-10.17 43.51-14.71 11.9-3.69 23.7-7.71 35.84-10.63 8.4-2.02 16.69-4.53 25.05-6.73 1.02-.27 2.71-1.13 3.14.3.42 1.38-1.32 1.95-2.44 2.45-7.48 3.39-15.44 5.32-23.3 7.58-7.25 2.08-14.46 4.34-21.65 6.62-9.18 2.92-18.3 6.03-27.5 8.91-15.91 4.98-31.47 10.92-47.16 16.51-13.02 4.64-25.96 9.55-38.79 14.71-15.38 6.18-30.93 11.89-46.38 17.87-18.55 7.19-37.17 14.21-55.72 21.43-21.64 8.42-42.93 17.68-64.01 27.44-5.29 2.45-10.62 4.82-15.93 7.23-.88 1.33-2.33 2.32-2.2 4.21.06.87-.56 1.08-1.3.66-2.61-1.47-4.87-1.43-7.54.15-4.53 2.88-9.51 4.92-14.31 7.27-9.66 4.73-19.04 9.96-28.29 15.42-12.09 7.14-23.93 14.68-35.31 22.91-3.68 2.66-7.3 5.41-10.95 8.12-2.15 2.22-2.07 5.48-3.71 7.97-.46.7-.67 1.5-1.6 1.55-1.23.07-1.05-.97-1.22-1.72-.12-.52-.07-1.26-.65-1.37-.72-.14-.99.62-1.31 1.15-2.43 2.89-5.56 4.99-8.34 7.5-19.04 17.17-36.98 35.41-52.05 56.2-10.43 14.38-19.78 29.46-23.88 47.13-1.77 7.61-2.97 15.25-1.59 23.06.67 3.8 1.94 7.42 4.18 10.62 2.6 3.72 5.92 5.65 10.57 4.19.8 0 1.44-.32 1.91-.98 9.08-7.95 15.61-17.86 21.37-28.29 12.02-21.73 21.43-44.63 30.11-67.85 4.07-10.87 7.78-21.86 11.64-32.81.3-.86.53-1.76 1.24-2.41 1.99-1.45 2.43-3.63 2.87-5.86.25-1.29.34-2.76 1.82-3.43.67-.3 1.42-.45 2.1-.08.83.46.54 1.3.34 1.93-.22.69-.39 1.38-.55 2.08-4.59 15.21-9.99 30.15-15.55 45.01-5.46 14.59-11.31 29.01-17.83 43.18-5.18 11.25-10.44 22.43-17.14 32.87-3.95 6.15-8.09 12.2-13.38 17.26-3.97 3.78-8.29 7-14.53 6.08-5.52-.81-8.66-4.17-11.13-8.61-6.23-11.22-5.63-23.06-3.06-35.04 3.99-18.66 13.42-34.7 24.18-50.13 12.64-18.14 27.92-33.89 43.7-49.21.9-.87 1.91-1.63 2.87-2.44 1.35-1.16 3.06-1.94 3.82-3.72 3.79-3.6 7.61-7.16 11.98-10.07 1.72-1.21 4.07-1.6 4.99-3.84.87-.39 1.59-.96 2.13-1.75l.11.1-.12-.09c1.43.46.51-1.21 1.24-1.38 1.08-1.08 1.38-2.53 1.8-3.91 3.28-10.88 6.54-21.76 9.82-32.65.05-.16.21-.28.31-.42.78-.42 1-1.28 1.45-1.95.43-.63.92-1.22 1.77-.95.91.29 1.21 1.04 1.18 1.94-.02.55-.08 1.13-.29 1.61-1.88 4.36-2.46 9.1-4.26 13.52-2.08 5.12-3.68 10.46-4.64 15.94.08.66.12 1.43 1.09.74.73-.52 1.61-.85 2.21-1.55.16-.19.34-.36.52-.52.59-.42 1.21-.78 1.77-1.25.2-.14.42-.24.66-.31 1.45-.38 2.74-1.05 3.58-2.32 1.05-1.59 3.05-1.94 4.2-3.38.15-.19.35-.31.58-.39.82-.05 1.17-.64 1.46-1.3 2.79-3.08 6.54-4.7 10.04-6.7 2.6-.44 5.14-.99 6.38-3.75 3.4-3.12 7.56-5.06 11.51-7.29 13.03-7.35 26.33-14.18 39.93-20.42.75-.34 1.48-.73 2.31-.82.84 0 1.68-.03 2.29-.76.18-.17.38-.32.59-.46 1.66-.88 2.24-2.04 1.74-4.03-.68-2.73-.68-5.59-1.1-8.38-.25-1.64.91-2.98 1.02-4.59.06-.85 1.19-.55 1.89-.48 1.09.11 1.74.63 2.2 1.72 1.31 3.08 1.08 6.37 1.51 9.57.06.46.05.91-.35 1.25-.15.13-1.71-.84-.36.52 1.6 1.6 3.33 1.57 4.96.49 1.58-1.05 3.21-2.04 4.73-3.2 1.86-1.21 3.91-2 5.99-2.72.79-.28 1.73-.29 2.2-1.17 2.2.63 3.45-1.27 5.09-2.03 3.1-1.44 6.55-2.16 9.28-4.38.89-.4 1.79-.79 2.68-1.19 1.1-.43 2.41-.29 3.31-1.24 3.03-1.62 6.68-1.84 9.36-4.23 9.37-3.93 18.65-8.05 28.12-11.76 11.25-4.41 22.57-8.65 33.83-13.06 6.59-2.58 13.23-5.05 19.84-7.57 4.75-1.86 9.78-3 14.29-5.48 5.39-2.29 10.85-4.39 16.44-6.15 1.02-.09 1.88-.56 2.73-1.06l-.02.02c.76-.31 1.65-.32 2.27-.95Z"/>
    <path class="cls-1" d="M305.84 450.62c-2.32-.78-3.7-2.3-4.45-4.7-.66-2.09-1.2-4.19-1.6-6.33-.33-1.79-1.29-3.33-3.01-3.44-1.84-.12-2.3 1.72-2.72 3.25-1.62 5.9-4.41 11.16-8.69 15.56-.98 1.01-2.01 2.48-3.68 1.69-1.48-.7-1.53-2.33-1.58-3.78-.03-.91-.05-1.83.03-2.74.32-3.26.71-6.51 1.01-9.77.1-1.06.36-2.41-1.1-2.71-1.37-.28-1.94.59-2.4 1.93-2.35 6.77-4.75 13.53-8.57 19.66-3.15 5.05-6.59 9.84-11.49 13.37-3.13 2.26-5.95 1.86-7.85-1.43-1.82-3.16-2.83-6.67-3.27-10.31-.22-1.86.25-3.51 1.09-5.22 2.35-4.82 4.36-9.79 6.14-14.87 3.99-11.34 6.8-22.97 9.19-34.71 1.05-5.17 1.88-10.41 1.79-15.73-.03-2.08-.8-3.64-2.8-4.57-2.09-.97-3.64-.11-5.1 1.22-1.37 1.24-2.34 2.78-3.1 4.46-2.45 5.39-4.17 11.01-5.67 16.73a212.37 212.37 0 0 0-5.24 27c-.92 7.2-1.66 14.44-1.5 21.72.02 1-.17 1.96-.7 2.88-2.47 4.38-5.33 8.5-8.2 12.61-7.88 11.31-17.79 20.7-28.17 29.65-1.28.38-2.45 1-3.6 1.64-1.51.51-2.04 2.15-3.34 2.9-1.12.55-1.24 1.82-1.93 2.68-1.17.85-2.41 1.62-3.5 2.57-6.63 5.74-13.76 10.78-21.18 15.44-1.1.69-2.25 1.07-3.58 1.08-3.63.03-7.27.07-10.9.26-1.97.1-3.58.29-3.11-2.61.19-1.18-.2-2.59-.72-3.71-.79-1.71-2.07-2.83-4.08-1.44-.12 1.45 1.25.41 1.66.98 1.09 2.15.51 4.47.65 6.71.07 1.05-.73 1.01-1.47 1.15-1.9.35-3.65.99-4.89 2.66-.8 1.08-.92 2.11-.28 3.27.7 1.25 1.75 1.84 3.18 1.61 1.82-.29 3.18-1.31 4.24-2.76.42-.57.6-1.5 1.4-1.58 3.37-.31 6.65-3.07 10.15-.28.68.54 1.8.26 2.65 0 1.47-.46 2.93-1 4.31-1.7 9.13-4.62 17.54-10.36 25.61-16.62.94-.29 1.87-.59 2.6-1.3 1.36-1.08 2.6-2.32 4.11-3.21.74-.54 1.05-1.38 1.48-2.13 2.01-1.13 3.51-2.88 5.23-4.35 10.38-8.85 19.91-18.5 27.56-29.88 1.86-2.77 3.89-5.43 5.93-8.27 1.46 3.26 2.68 6.38 4.91 8.98 2.28 2.65 6.54 4.06 10.33 1.73 5.37-3.31 8.95-8.2 12.41-13.27 2.23-3.26 3.77-6.92 6.18-10.82 0 1.55-.11 2.45.02 3.33.37 2.46 1.49 4.56 3.87 5.54 2.18.9 4.12-.15 5.83-1.41 1.09-.8 2.01-1.82 2.84-2.94 2.47-3.29 4.66-6.75 6.4-10.81.95 2.01 1.6 3.72 2.52 5.26 1.73 2.91 5.24 3.67 8.1 1.9.6-.21 1.18-.53 1.18-1.21 0-.69-.82-.46-1.17-.8Zm-56.86-26.06c.49-1.9.22-4.5.74-6.39.53-1.92.93-4.05 1.36-5.99.9-4.06 2.55-7.44 3.34-11.52.12-.63 4.83-8.46 4.71-7.84-.45 2.28-.6 12.63-1.12 14.89-.89 3.91-1.15 6.59-2.23 10.45-1.05 3.76-3.48 10.3-3.84 14.21-.06.64-5.88 14.43-5.82 13.78.2-2.23 2.29-19.44 2.85-21.61ZM188.29 82.02c.42-10.85.51-21.72 1.36-32.53.84-10.71 1.94-21.41 3.45-32.06.65-4.59 1.24-9.17 2.46-13.65.26-.97.52-2.01 1.31-2.67 1.05-.87 2.33-1.45 3.69-.9 1.52.62 2.1 1.96 2.1 3.53-.02 4.93-.31 9.84-.51 14.76-.45 10.86-2.49 21.5-3.92 32.23-1.16 8.69-1.03 17.46-1.15 26.21-.21 16.37-.37 32.75-.57 49.12 0 .72-.18 1.44-.27 2.16-1.15 3.03.23 6.1-.19 9.2-.62 4.53.04 9.2-1.37 13.66-.34 1.09-.43 2.15.57 3 .2.17.43.48.39.71-.56 3.24 1.09 6.6-.51 9.78-.34.67-.44 1.4-.39 2.14.18 2.66-.36 5.31-.21 7.97.08 1.42-.28 2.75-1.92 2.75-1.76 0-2.1-1.32-2.07-2.9.05-2.25-.54-4.47-.43-6.74.03-.54-.3-1.19-.02-1.62 1.21-1.83.2-3.23-.8-4.63-.57-.79-.83-1.52-.5-2.53 1.54-4.7 1.78-9.32.02-14.13-1.1-3-.14-6.33-.27-9.51-.22-5.37.51-10.75-.18-16.12-.32-2.45.29-4.93-.19-7.38 0-2.56.15-5.12-.4-7.63-2.1.96-2.53.79-2.53-1.33 0-3.09 1.01-6.04 1.49-9.04.63-3.91 1.55-7.84 1.54-11.86Z"/>
    <path class="cls-1" d="M188.9 111.87c.15 6.65.46 13.29.4 19.95-.03 3.76-.47 7.53-.18 11.31.06.74.1 1.52.42 2.07 1.76 2.98 1.26 6.15 1 9.33-.15 1.85-.17 3.6-1.24 5.35-.37.6 1.01 2.48 1.88 3.54.7.87.72 1.22-.14 1.92-.54.44-.84 1.52-.34 2.01 1.1 1.06.11 2.02.1 3 0 .69-.51 1.43.4 1.92.95.51.57 1.06.18 1.78-.44.81-.59 1.77.25 2.49.4.35.94.73 1.48.35.83-.57 1.09-1.28.57-2.32-.5-1 1.59-2.58-.67-3.29-.05-.01-.09-.23-.07-.24 3.03-1.85-.78-5.85 2.47-7.88.53-.33-.42-2.77-1.47-3.93 1.3-1.06 2.13-2.81 1.16-3.94-2.49-2.91-.81-5.57-.14-8.35.08-.33.18-.73.07-1.02-1-2.58.12-5.15.25-7.66.14-2.61.09-5.16-.15-7.72-.1-1.05.23-1.76 1.09-2.28.7 3.51.22 7.07.24 10.59.11 14.99-.06 29.99.09 44.99.15 14.74.55 29.47.85 44.2.3 14.88.68 29.76.65 44.65-.01 9.71.53 19.42.81 29.13.02.55-.02 1.09-.04 1.64-.75 1.64-.62 3.33-.28 5.04.65 3.3.5 6.58-.32 9.83-.73.79-.39 1.51.14 2.23 0 .42-.21.72-.51.98-.72.56-1.63.83-2.32 1.44-.35-.11.03.56-.01.19 0-.06.08 0 .16-.04.72-.33.92.24 1.24.66 2.39 3.09 3.1 11.21 1.15 14.06-.72 1.05-1.56 2.15-3.04 1.98-.88-.1-2.08-.01-1.52-1.75.45-1.39-.97-2.51-1.18-4.03-.35-2.52.9-4.82.31-7.23-.96-3.95-.73-8.03-1.15-12.04-.37-3.55 0-7.16 1.17-10.67.59-1.75.02-4.1-.68-5.41-1.31-2.47-.77-5.03-.14-6.8 1.15-3.25-.2-5.91-.65-8.75-.25-1.55-.84-3.04-.09-4.48.63-1.2-.36-2.09-.24-3.16.34-3.17.22-6.39 1.01-9.52.2-.78-.03-1.44-.46-2.06-1.56-2.26-1.25-4.64-.93-7.23.22-1.78-.49-3.76-.17-5.64.5-2.94-.39-5.81-.24-8.73.05-.97-.68-1.67-1.04-2.5-.62-1.79-.31-3.63-.39-5.45-.71-16.63-.36-33.28-.82-49.91-.63-22.68-.18-45.36-.36-68.04-.01-1.45-.17-2.94.55-4.3.23-.34.52-.41.88-.23ZM328.56 454.18c-1.42-5.82-1.09-12.1-1.29-18.19-.46-13.94-2.84-27.66-4.68-41.44-1.18-8.81-3.36-17.5-3.29-26.45.04-4.89.59-9.73 3.42-14.39.68 2.54.52 4.82.6 7.06.03.72-.17 1.67.79 1.73.7.05.77-.83.92-1.46.56-2.32.46-4.7.69-7.04.19-2.02-.49-3.62-2.39-4.05-1.78-.4-2.65 1.23-3.4 2.6-3.89 7.07-5.02 14.79-4.69 22.66.49 11.66 2.72 23.14 4.3 34.69 2.18 15.92 2.96 31.95 3.47 47.99.09 2.87.78 5.86-.55 8.59-4.3 8.77-7.44 17.98-10.36 27.27-2.65 8.42-5.04 16.88-4.57 25.89.21 3.91 2.33 7.43 5.61 8.24 3.52.87 6.27-.68 8.44-3.12 3.64-4.1 5.04-9.21 5.73-14.52 1.09-8.41 1.41-16.87 1.44-25.34.02-5.28.41-10.61-.2-15.81-.59-4.99 1.29-9.73.03-14.91Zm-4.74 52.18c-.75 4.37-.47 10.43-3.19 14.19-.06.4-.96.45-1.15.76-.42.71-1.04 1.1-1.79 1.38-2 .75-4.21 1.33-5.37-.48-.17-.27-.67-.88-.78-1.17-.8-.44-1.05-2.18-.98-3.41.61-10.5 5.32-21.35 8.04-31.45.9-3.34 6.55-19.83 6.64-16.5.16 6.48-.32 30.26-1.41 36.68ZM310.22 261.67c.08-1.3.86-2.09 2.05-1.84 1.21.25 1.57 1.44 1.44 2.6-.21 1.96-.52 3.91-.8 5.86-.14.22-.18.48 0 .65.24.23.4 0 .54-.18 1.97-2.61 4.03-2.82 7.52-.69 3.1 1.9 6.28 3.48 9.88 4.32 3.43.8 6.39-.38 9.46-1.39 1.31-.67 3.19-.61 3.41-2.67.83 0 1.36-.41 1.58-1.22.4-.7.81-1.39 1.21-2.09.66-.61.62-1.47.8-2.26.2-.85.83-1.28 1.59-1.15.97.16 1.34.84.86 1.81-.18.89-.48 1.78-.5 2.68-.02.73-.9 1.64.07 2.19.81.46 1.55-.29 2.23-.7 3.2-1.9 4.22-5.38 5.9-8.34 1.16-2.03 1.92-4.29 2.76-6.48.46-1.18 1.11-2.32 2.37-2.28 1.43.04 2.15 1.27 2.31 2.64.19 1.65.73 3.19 1.32 4.7.66 1.67 1.67 1.77 2.78.33 2.87-3.71 5.71-7.45 8.49-11.22.79-1.07 1.5-2.15 3.03-1.65 1.51.49 1.86 1.6 1.9 3.17.03 1.07-.9 2.77.39 3.19 1.36.45 1.89-1.41 2.72-2.29.73-.78 1.12-1.87 2.13-2.44 1.85-2.14 4.16-4 4.27-7.18l.16-.52c.46-.48.59-1.16 1-1.67.53-1.05 1.37-1.87 2.55-1.54 1.16.32 1.8 1.3 2.01 2.59.22 1.35.36 2.69.3 4.05-.16 3.43 1.82 5.49 4.5 7.11 1.53.82 1.74 1.64 0 2.46-5.07.62-7.35-1.05-9.22-7.16-.88 3.48-3.39 5.49-4.86 8.22-1.74 3.24-6.27 4.73-9.43 1.91-1.05-.94-1.51-.77-2.26.24-1.41 1.89-2.99 3.65-4.41 5.54-3.05 4.05-6.84 4.08-9.76-.04-.26-.37-.45-.8-.91-.88-2.14 2.72-3.15 6.11-5.45 8.74-1.37 1.56-3.12 2.5-4.81 3.56-.67.42-1.55.54-2.12.25-2.68-1.36-4.23.21-6.39 1.57-5.82 3.65-12.03 3.93-18.36.76-2.21-1.1-4.19-2.47-6.21-3.8-1.25-.82-2.15-.84-2.84.64-1.69 3.66-5.18 6.13-6.62 9.98-.41 1.09-1.49 1.6-2.66 1.06-1.35-.62-1.16-1.87-.62-2.82 1.39-2.48 2.27-5.15 3.14-7.83.26-.49.32-1 .27-1.56-.28-3.07-.02-6.06 1.26-8.91ZM197.68 512.59c1.38-1.2 2.56-2.66 4.37-3.28 1.01.33 1.02 1.12.99 1.99-.1 2.7-.66 5.61-.28 8.04.62 3.91.38 7.73.37 11.57-.01 3.77.66 7.6-.35 11.34-.3 1.12.1 2.18.28 3.25.1.62.46 1.21.34 1.86-.87 4.69-.24 9.36.33 14.01.22 1.82-1.47 3.16-1.29 4.61.2 1.59 1.67 3 1.08 4.87-.08.26-.06.54-.03.82-.06.24-.17.46-.33.66-1.14 1.04-.91 1.94.29 2.74.73 1.49.32 3.06.11 4.54-.35 2.4-.11 4.66.12 7.06.33 3.39.88 7.06-.23 10.53-1.38 1.19-1.36 2.62-.25 3.81.69.74.86 1.34.52 2.16-1.97 4.73-.73 9.43.15 14.13.28 1.5-1.19 4.48-2.75 5.49-.36.15-.74.24-1.13.31-.9.13-1.82.31-2.52-.53-.67-1.89-.61-3.82-.31-5.76.26-.79.29-1.59.03-2.39-.41-2.16.42-4.29.12-6.44.12-.45.9-.71.37-1.35-.23-.42-.26-.87-.27-1.33.29-.92.42-1.82-.14-2.7-.32-6.26-.64-12.52.37-18.76.15-.95.62-1.95-.56-2.9-.63-.5-.32-1.9-.07-2.89.26-1.02.16-1.98-.45-2.85 0-.18.02-.36.03-.54 1.63-1.57.54-3.53.53-5.21-.03-4.77.06-9.55-.27-14.3-.28-3.99-.37-7.98-.38-11.98 0-.37.11-.72.14-1.09-.11-.67 1.64-1.17.17-1.95-.11-.54.04-1 .36-1.43 1.04-.79.33-1.78.31-2.69.03-.25.11-.48.25-.69.85-2.16-.68-3.78-1.26-5.62-.19-.96.28-1.94-.1-2.9.11-3.39-.1-6.82 1.53-9.99.71-1.4-.7-2.78-.18-4.21ZM119.14 348.93c3.17-10.83 6.31-21.66 9.52-32.47 5.95-20.1 12-40.16 17.48-60.39.09-.33.29-.63.44-.95.46-.57.89-1.16 1.12-1.86.28-.85.37-1.99 1.66-1.71 1.24.27.82 1.41.95 2.27.25 1.63.14 3.28.28 4.92-.57 4.08-1.79 8.01-2.97 11.94-6.35 21.24-12.1 42.66-18.82 63.79-1.27 3.97-1.73 8.23-3.93 11.89-.71.55-1.36 1.14-1.45 2.12-.15 1.68-1.17 2.72-2.6 3.44-.61.02-.9-.4-1.18-.85-.19-.7-.85-1.3-.51-2.13ZM388.66 429.16c.98 12.83.77 25.69.34 38.52a93.414 93.414 0 0 1-3.07 20.77c-.4 1.52-1.17 2.9-2.05 4.14-1.59 2.26-4.35 2.78-7.07 1.48-4.29-2.05-6.72-5.71-8.34-10-.53-1.41-1.49-2.75-1.05-4.4.34-.69.81-.92 1.49-.42.97.96 1.08 2.29 1.52 3.48 1.22 3.26 3.03 6.04 6.2 7.73 2.58 1.37 4.2.85 5.09-1.94 1.26-3.92 1.82-8 2.35-12.09 2.01-15.58.78-31.22 1.01-46.83.43-1.5.18-2.89-.7-4.18 1.2-1.64 1.11-3.5 1.01-5.41-.62-11.82-1.45-23.63-1.62-35.47-.03-2.07-.39-4.13-.76-6.21-1.19 5-2.45 9.95-4.66 14.59-1.3 2.73-2.81 5.28-5.09 7.33-1.03.93-2.15 1.49-3.46.81-1.26-.66-1.64-1.84-1.47-3.24.17-1.46.44-2.87 1.22-4.14.26-.43.62-.69 1.11-.32.43.32.16.63-.06.91-.73.91-.53 2.1-.95 3.11-.3.72-.2 1.49.5 1.96.82.54 1.57.24 2.2-.42 1.77-1.86 3.19-3.96 4.35-6.25 2.26-4.49 3.55-9.27 4.61-14.15.26-1.22-.08-3.43 2.09-3.23 1.84.18 1.39 2.04 1.54 3.32 1.39 11.66 2.23 23.36 2.73 35.09.66 1.8-.41 3.78.59 5.54l-.03-.04c.74.73.61 1.57.45 2.49-.41 2.48-.36 4.98-.04 7.47ZM354.14 443.92c-1.22 2.26.01 4.44.3 6.62.64 4.95 1.93 9.83 1.87 14.87-1.54 2.82-1.97-.31-2.94-.55-.92-3.59-.98-7.3-1.61-10.92-.05-.92.13-1.86-.17-2.77-.12-.22-.23-.45-.35-.68-1.38-1.92.65-4-.29-5.95-.91-6.12-1.98-12.22-2.7-18.37-1.07-9.15-2.32-18.27-3.58-27.39-1.19-8.66-2.05-17.37-3.19-26.04-.64-4.88-1.6-9.72-1.88-14.64-.26-4.64-.4-9.28 1.36-13.73.55-1.38 1.05-2.84 2.79-3 1.7-.16 2.91.78 3.89 2.11 1.08 1.48 1.44 3.23 1.43 4.91 0 2.87-.39 5.73-.64 8.85-1.37-.65-1.29-1.69-1.11-2.59.48-2.4-.19-4.73-.3-7.09-.02-.36-.11-.72-.25-1.05-.49-1.17-.85-2.66-2.45-2.53-1.36.11-1.38 1.61-1.6 2.56-.95 4.13-.91 8.36-.46 12.53 1.38 12.84 3.22 25.62 4.82 38.43 1.67 13.29 3.16 26.62 5.26 39.86.11.72.13 1.45.19 2.18.33.4.63.82.76 1.33.44.96 1.71 1.7.83 3.03ZM152.63 231.51c3.37-15.3 7.66-30.37 11.56-45.54 2.25-8.74 4.46-17.49 6.7-26.24.06-.25.24-.48.36-.72 1.17-.98 1.15-2.36 1.41-3.71.21-1.12.82-2.63 2.16-2.37 1.35.26 1.27 1.63 1.03 2.94-.75 4.16-1.43 8.31-3.29 12.17-1.14 2.35-.29 4.87-.47 7.31-1.05 5.66-2.72 11.16-4.13 16.72-2.49 9.81-5.18 19.57-7.56 29.41-.36 1.5-.68 3.03-1.47 4.4-2.19 3.46-2.96 7.39-3.63 11.33-.25 1.47-.45 2.91-1.81 3.76-.46.29-1.18.21-1.49-.29-.87-1.39-.98-2.95-.37-4.44.63-1.54.89-3.12 1.01-4.74ZM245.55 280.43c-.31 6.95-.33 13.87 2.04 20.56.57 1.61.78 3.54 2.37 4.47 1.74 1.01 3.7 1.09 5.4-.27.85-.68 1.71-1.31 2.7-1.76.69-.3 1.29-1.13 2.13-.59.62.4.5 1.05.08 1.61-2.75 1.99-4.79 5.06-8.78 5.09-3.59.03-5.99-1.43-7.18-4.94-1.56-4.64-2.79-9.34-2.77-14.28-1.16-1.48-.22-2.98-.04-4.48.12-9.18.74-18.32 1.79-27.43.8-6.97 1.86-13.9 4.14-20.56.59-1.73.7-3.57 1.43-5.24.68-.74.75-2.32 2.05-2.14 1.27.18 1.74 1.39 1.8 2.66-.39 4.66-2.28 8.97-3.11 13.55-1.62 8.88-2.26 17.85-2.96 26.82-.66 2.26.23 4.77-1.08 6.93ZM489.77 212.86c-2.92 2.78-6.2 4.43-10.35 3.17-.64-.19-.95.05-1.43.41-5.4 4.03-10.41 8.52-15.37 13.07-2.33 2.14-4.94 3.42-8.3 3.28-4.98-.21-9.53 1.16-13.04 4.94-1.06 1.14-2.39 1.23-3.48.75-1.12-.49-1.21-1.76-1-3.08.62-4.03 2.12-7.93 1.82-12.1-.06-.9.15-1.83-.26-2.7-1.04.46-.62 2.91-2.08 2.19-1.66-.83-.35-2.6.26-3.51 1.25-1.87.94-4.18 2.1-6 .18-1.17.89-1.51 1.96-1.23.86.22 1.13.83 1.03 1.66-.59 5.24.36 10.55-.75 15.77-.32 1.49-.82 2.97-.54 4.71 4.13-3.49 8.8-5.12 14.12-4.87 2.42.11 4.37-1.05 6.14-2.58 4.68-4.05 8.82-8.72 14.02-12.18 2.75-1.82 2.69-5.2 4.08-7.78.79-1.47 1.38-3.14 3.52-2.73 1.78.34 2.56 2.04 1.92 4.12-.37 1.2-.93 2.34-1.45 3.62 1.93.45 3.61-.69 5.39-.51.79.29 1.99.14 1.67 1.59Z"/>
    <path class="cls-1" d="M189.86 240.36c.48.09 1.03.36.92.83-.55 2.31 1.31 4.64-.12 6.92-.04.07.02.19-.01.27-.68 1.4 2.85-.78.99 1.02-.92.89-.53 1.63-.63 2.31-.21 1.42-.31 2.95.23 4.35.41 1.05-.63 1.73-.44 2.95.3 1.88.14 3.73 1.75 5.13.19.16.42.59.34.71-1.4 2.27.02 5.03-1.24 7.27-.44.79-.76 1.24.27 1.66.08.03.17.07.25.11-1.1 1.35.37 2.83-.04 3.96-.71 1.98-.23 3.63-.09 5.54.2 2.77 3.19 5.78.11 8.58 1.29 2.11-1.75 4.85.91 6.72 1.48 1.03-1.56 2.03.13 3.21.46.32 1.4 2.33-.51 3.09-.07.03-.17.15-.16.21.72 3.65-1.68 7.38.31 11 .19.35.29 1.03.09 1.27-1.58 1.86-.15 3.93-.11 5.77.03 1.37.25 3.24 1 4.74.28.56.78 1.4-.55 1.6-.88.14-.21.87-.34 1.29-.49 1.56 1.13 3.08.03 4.62 1.69.82 1.67 2.09.92 3.54.75-.12 1.4.59 2.28-.08 1.94-1.48 2.31-3.54 2.5-6.04.19-2.58-1.71-4.55-1.28-7.1.13-.74-1.23-1.4-1.39-2.41-.28.31-.55.63-.9 1.03-.51-2.27 1.08-2.81 2.59-3.41.6.26 1.22.5 1.58 1.1.67 8.32.85 16.67 1.12 25.01.12 3.72.35 7.45.35 11.17 0 1.54.73 1.15 1.5.86 2.37-.91 4.44-2.49 6.94-3.08-1.49 3.18-5.82 5.14-8.7 4.04-.74-.28-1.27-.74-1.71-1.28-.3-.38-.84-1.03-.38-1.5.33-.33.83.39 1.49.46-1.73-1.31-.59-2.99-.45-4.23.26-2.28-1.57-3.82-1.35-6.04.18-1.8-1.87-1.25-2.7-1.21-1.11.05-.81.95-.03 1.59.53.43-.04.53-.34.6-1.04.23-.84.97-.76 1.71.35 3.08.54 6.18 1.03 9.24.47 2.86.28 3.36-2.67 4.24-.08-.24-.1-.49-.05-.74.38-4.01.57-8-.65-11.93-.37-1.06-.42-2.15-.44-3.25-.28-16.9-1.4-33.77-1.39-50.68 0-7-.21-14.05-.8-21.07-.43-5.09-.05-10.23-.15-15.34-.11-5.66.15-11.33-.19-17-.07-1.18-.14-2.41.9-3.3ZM428.27 233.71c-.89.25-1.71 1.32-2.7.38-.9-.86-.38-1.9.03-2.76 1.11-2.32 1.24-4.83 1.66-7.29 0-1 1.18-2.08.09-2.97-1.09-.88-2.34-.62-3.44.23-.35.42-.17 1.04-.57 1.44-.38 1.54-.69 2.83-2.58 3.62-1.64.68-2.91 2.38-4.03 3.97-3.38 4.79-5.06 10.38-7.19 15.73-2.03 5.1-1.75 5.21-7.04 3.71.86.82 1 1.64 0 2.46 2.85.05 5.67-1.14 8.59.24 1.09.52 2.57-.23 3.64-1.34 4.1-4.25 7.16-9.13 9.23-14.63 3.42 1.22 4.89.73 6.58-2.08-.06-2.51-1.35-.97-2.26-.69Zm-7.81 4.97c-1.76 2.98 0 0-1.74 2.99-1.83 3.14-7.7 5.24-9.41 8.44-.46.86 1-.09 1.45-.94 1.71-3.2 2.73 2.49 2.49-1.13-.23-3.48 5.38-16.46 9.09-18.95.81-.54-1.39 8.77-1.88 9.6ZM171.37 175.06c.21-2.53-.97-5.27.59-7.57 2.01-2.96 1.85-6.51 2.9-9.72.35-1.08 1.46-3.01-.1-4.55-1.09 1.08-1.73 2.29-1.67 3.93.04 1.15-.73 1.75-1.86 1.88 1.32-5.28 2.61-10.58 3.95-15.85 2.86-11.2 5.43-22.48 7.68-33.82 1.8-9.11 3.61-18.22 5.41-27.33.34 1.9.32 3.8-.22 5.64-.65 2.24-.54 4.58-.48 6.81.04 1.52-1.49 1.86-1.38 3.49.14 2.09-.3 4.3-.26 6.71 1.09-.67 1.54-2.09 2.95-1.82v9.01c-.13 0-.26-.01-.39-.02-1.12-.69-.31-1.7-.4-2.37-2.14 14.33-6.03 28.44-9.71 42.6-1.75 6.73-3.42 13.47-5.3 20.16-.3 1.07-.22 2.45-1.73 2.82ZM354.02 464.89c.87-.3 1.12 2.18 2.3.51 1.32 8.32 1.42 16.73.93 25.07-.51 8.66-2.24 17.2-7.49 24.5-2.04 2.83-5.31 2.84-7.59.11-3.46-4.13-4.98-9.08-5.51-14.33-.93-9.34.68-18.35 3.84-27.12.49-.52.47-1.37 1.04-1.8 1.11-.83 1.95-.79 2.07.87-.42 4.03-1.88 7.81-2.74 11.74-1.73 7.91-1.95 15.77.81 23.53.52 1.47 1.12 2.91 2.09 4.15 1.58 2.02 2.84 2.06 4.35 0 1.92-2.61 3.01-5.64 3.93-8.71 2.45-8.18 2.85-16.55 2.22-25-.24-3.19-.33-6.39-.8-9.56-.19-1.32-.37-2.75.56-3.96Z"/>
    <path class="cls-1" d="M427.26 224.04q.1-3.15-3.31-2.39c-.65-2.53-.65-4.97 1.02-7.17 2.22.8.91 2.99 1.77 4.26 1.9-3.03 1.84-3.36-.99-4.92-.29-.51-.4-1.07-.42-1.65 0-2.29.68-4.47 1.11-6.69 1.31-3.67 1.21-7.57 1.61-11.35.67-6.26 2.12-12.42 2.29-18.74.04-1.49-.75-2.61-.88-3.96.37-2.14.6-4.31 1.44-6.33.46-1.09.93-2.43 2.43-2.09 1.27.29 1.88 1.47 1.93 2.72.1 2.27.15 4.55.05 6.82-.31 7.1-1.44 14.09-2.45 21.12-.6 4.21-.77 8.49-1.77 12.65-1.2-.15-2.37-.37-2.86 1.24-.52 1.71.4 2.51 1.74 3.12-.51 3.64-.79 7.33-1.77 10.9-.23.86-.28 1.78-.95 2.47ZM201 504.36c-1.83.04-1.79 2.35-3.32 2.76-1.02-.14-1.18-.77-1.23-1.73-.19-3.76-.24-7.47.28-11.24.23-1.66.36-3.62-.28-5.59-.54-1.66-.27-3.93.4-5.85.24-.69.77-1.39.49-2.09-1.06-2.67-.96-5.44-1.04-8.23-.04-1.3-1.03-2.57.54-3.69.77-.55-.28-.83-.47-1.24-.34-.73-.4-1.44.11-2.06.56-.67 2.03-1.09 2.11-.8.52 2.01 2.18.54 3.07 1.19.22.16.44.32.61.54.46 1.55.69 3.13.35 4.72-.44 2.03-.1 3.96.59 5.87 0 .18 0 .37-.01.55-1.22 1.11-.51 2.21.03 3.3 0 .18-.02.36-.02.54.11 2.92-.23 5.87-.27 8.77-.05 3.76.17 7.5.19 11.25.01 1.56-1.65 1.85-2.13 3.02ZM190.06 370c.92-2.19 3.06-1.53 4.7-1.88 1.24-.27 2.96-.71 3.35 1.73-.55-2.8 1.06-3.95 3-4.88.1 6.37.15 12.74.32 19.11.31 12.19.7 24.37 1.02 36.56.02.81-.16 1.63-.25 2.44-.27.56-.65.86-1.3.61-.39-2.67-.37-5.38-.86-8.04-1.09-1.72.28-3.36.18-4.98-.29-5 .21-10.05-.57-14.97-.5-3.12.19-6.35-1.55-9.47-.92-1.66.36-4.29.73-6.45s.29-4.31.44-6.46c.05-.73-.32-1.97-1.69-.94-.75.56-1.64.53-2.45.06.76 1.82 1.32 3.46 1.08 5.74-.18 1.77-1.41 4.65 1.11 6.3-.52 2.03-.48 4.09-.5 6.16-.03 3.56-1.54 6.96-1.22 10.56.29 3.2.58 6.4.97 9.58.14 1.13.15 2.02-1.35 1.97-1.05-.76-1.32-1.76-.88-2.96-.88-2.37-.41-4.85-.48-7.26-.29-10.31-.48-20.62-.54-30.94-.01-2.19-.36-2.93-2.46-1.78-.23.13-.53.12-.79.18ZM120.27 350.64c.01.45.1.87.55 1.11.41 1.12.49 2.34.91 3.46 0 .25-.06.49-.14.72-1.13 1.74-1.15 3.72-1.19 5.69-1.76 7.39-4.15 14.59-6.36 21.84-2.8 9.18-5.39 18.42-8.44 27.52-.35 1.03-.54 2.14-1.51 2.85-.29.16-.56.14-.83-.05-.41-2.28.89-4.2 1.36-6.29.29-1.34 1.41-2.52.66-4.05-.1-.2-.09-.63.05-.76 2.57-2.55 3.05-6.17 3.99-9.29 1.01-3.37 2.28-6.72 2.98-10.2.18-.87.45-1.74-.51-2.09-1.07-.39-.94.61-1.18 1.28-.3.81-1.03 1.25-1.96 1.17 2.6-9.19 5.24-18.37 8.33-27.41.73-1.31 1.11-2.74 1.43-4.19.23-1.05.5-1.96 1.88-1.31ZM503.01 268.01c1.41.95 1.5 2.32 1.58 3.76.62 10.58-4.4 18.69-11.98 25.13-4.04 3.44-5.27 7.07-4.47 11.88.85 5.11 2.41 10.05 3.6 15.08.36 1.54 1.44 2.57 2.57 3.63-2.38.27-3.68-1.37-4.32-3.07-2.3-6.12-4.26-12.37-4.54-19-.15-3.56.8-6.68 3.79-8.89 3.87-2.87 6.72-6.67 9.35-10.6 3.6-5.38 5.84-11.17 4.42-17.92ZM197.69 605.39c.18.37.35.73.53 1.1-.31.32-.08.87-.51 1.13 1.05 2.37-.61 4.74-.02 7.11.44.73-.39 1.46 0 2.2-.76 1.83-.08 3.66.01 5.49.13.55.33 1.08.41 1.65.06.22.1.44.12.67.05.45.05.9 0 1.34-.02.21-.06.43-.09.64-.06.59.38.99.6 1.47 1.25 3.28 1.02 6.55.03 9.83-.29.98-.39 2.06-.05 2.98 1.29 3.46.18 7.11.95 10.61.22 1.01-1.46 1.74-.71 2.98.06.36-.09.89.11 1.06 2.48 2.18 1.63 4.18.44 6.83-.78 1.72-1.18 4.4-.28 6.42.78 1.75.64 3.36.4 5.01-.65 4.53-.29 9.06-.34 13.59-.02 2.15-.08 4.33-.36 6.48-.56.76-.25 1.64-.33 2.46.05.43-.83.79-.1 1.28.04.99.59 2.09-.65 2.78-.1-.06-.2-.12-.3-.19-.73-3.24-.4-6.54-.43-9.79-.25-27.64-.39-55.29-.57-82.93 0-.74.02-1.46.38-2.13.23-.24.48-.26.75-.07ZM148.28 520.86l1.66.98c-1.34-.16-2.44.32-3.59 1-3.86 2.28-5.77 1.43-6.91-2.85-.28-1.05-.6-2.07-1-3.22-.56 2.61-1.24 5.2-1.64 7.84-.44 2.92-1.53 5.59-2.63 8.28-.3.74-.78 1.39-1.39 1.99-2.56 2.53-4.33 2.49-6.5-.41-1.55-2.07-2.14-4.56-2.88-7-1.63-5.36-1.42-10.78-.82-16.21.09-.83.14-2.03 1.27-2.45.65.5.31 1.06.22 1.56-1.33 7.34.31 14.3 2.75 21.14.53 1.49 1.19 3.6 3.03 3.49 1.9-.11 2.91-2.01 3.59-3.77 2.11-5.45 2.88-11.22 3.83-16.94.65-3.94 1.14-7.9 1.66-11.86.1-.73.09-1.74.93-1.69.96.05.77 1.12.67 1.8-.49 3.34-1.1 6.63-.62 10.06.38 2.72.9 5.38 1.72 7.99.67 2.12 1.61 2.46 3.64 1.46.96-.47 1.78-1.33 3-1.17ZM273.94 278.08c0-1.2.14-2.36 1.11-3.23 1.15-.23 1.46.54 1.69 1.41-1.13 2.52-.46 5.55-2.21 7.9-1.62 4.53-.18 6.22 4.07 6.19 5.27-.04 9.15-2.92 13.21-5.59.83-.54 1.64-1.11 2.46-1.67q3.05-1.68 3.9.58c-.69.38-1.19.97-1.67 1.58-5.43 4.64-11.01 8.94-18.77 8.44-2.39-.16-4.37-1.06-5.87-2.97-1.82-.78-1.25-2.06-.71-3.34.61-2.33 1.22-4.66 1.84-6.99.48-.7.75-1.49.96-2.31Z"/>
    <path class="cls-1" d="M202.05 466.51c-1.55-1.01-3.1.55-4.68.05.17-.94 1.48-.41 1.56-1.38-.67-.43-1.21.13-1.71.35-.86.39-.88 1.48-.25 1.76 2.27 1 1.27 1.58-.11 2.31-.27.14-.64.73-.57.81 1.68 2.22.33 4.7.73 6.98.14.78 1.3 1.44 1.09 2.57-.18.98.71 2.18-.7 3-.15.09-1.45 1.9.09 2.98.96.67-.06.45-.4.7-.69.51-.45 1.53-.21 2.12.6 1.48.74 5.28-.02 6.92-.08.16-.24.4-.18.5 1.51 2.72-1.32 5.77.6 8.41.62.85-.88 1.88.4 2.51-1.1.36-1.29 1.72-2.33 2.14.85-3.22.3-6.5.3-9.74 0-12.44-.19-24.88-.24-37.32 0-2.61-.78-5.22-.05-7.84.63-.41 1.27-.17 1.91-.02 1.74.71 1.22 2.25 1.15 3.51-.05.89-.26 1.78-.28 2.69-.02.79-.38 1.82.88 1.85 1.12.02.8-.98.82-1.65.03-1.22.08-2.41 1.61-2.76.19.01.45.03.5.16 1.05 2.78.91 5.57.11 8.38ZM388.66 429.16c-1.03-3.28-.3-6.64-.41-9.96 4.17-5.02 8.02-10.33 12.74-14.85 5.37-5.13 10.56-10.48 16.65-14.81.93-.2 1.49-.94 2.22-1.45.99-.69 1.68-.48 1.79.84-6.4 5.7-13.16 10.98-19.17 17.12-4.73 4.83-9.01 10.03-13.1 15.39-.67.87-.81 1.78-.78 2.8.05 1.64.05 3.28.07 4.92ZM152.63 231.51c1.38 1.41.27 3.03-.27 4.02-.78 1.43-.43 2.58-.26 3.88.07.51-.12 1.06.75 1.13.76.06.96-.34 1.15-.87.83-2.22 1.12-4.61 1.51-6.9.44-2.53 1.48-4.63 2.7-6.74.91 1.09.46 2.27.18 3.4-2.19 8.86-4.3 17.74-6.77 26.53-.28.98-.25 2.26-1.68 2.52-.1-1.84-.26-3.69-.28-5.53 0-.49.12-.93-.46-1.02-.7-.12-.58.47-.65.89-.18 1.17-.79 1.99-1.98 2.3 2.01-7.87 4.03-15.74 6.04-23.6ZM203.16 571.9c-.45-1.71.68-3.92-1.63-5.1-.08-.04-.56-1.72.52-2.27 1.67-.84 1.35-2.42.95-3.59-.64-1.86-.95-3.61-.18-5.43.26-.62-.04-.97-.2-1.49-.43-1.38-.86-2.73-.32-4.29.49-1.42.81-2.94-.01-4.53-.76-1.46-.61-3.14.32-4.52.74-1.1-.34-1.91-.22-2.75.66-4.43-.18-8.9.47-13.34.18-1.22-.33-2.48-.14-3.83.15-1.06-1.45.46-1.86-.45 2.98-3.43 1.22-7.32 1.18-11.01.46-.63.81-1.38 1.63-1.65.05 10.02.08 20.04.15 30.07.08 10.55.21 21.11.31 31.66 0 .62.2 1.29-.34 1.82.31.72-.08.79-.64.7ZM199.9 750.33c-.73-8.23-1.35-16.47-1.21-24.74 1.68.04 1.44 1.31 1.54 2.36-.62.54-.05 1.03.08 1.55 1.13 4.48-.67 9.11 1.1 13.6-.32-4.02.73-7.96.29-11.98.63-1.93-.83-3.86.11-5.86.48-1.01.65-2.09 1.92-2.4-.06 6.52.1 13.06-.28 19.56-.2 3.35.43 6.71-.23 10.03 0 1.42.15 2.84-.22 4.24-.17.64-.38 1.28-1.11 1.35-.83.08-.82-.66-1.11-1.22-1.11-2.09.05-4.43-.88-6.51ZM252.04 233.42c-1.04-3.57-2.13-.54-3.2-.02 1.76-5.79 4.47-11.08 7.8-16.04.93-1.38 2.2-1.62 3.6-1.12 1.43.51 1.78 1.75 1.66 3.21-.21 2.54-.4 5.08-.6 7.62-.73 2.23-1.59 1.69-2.5.13-.6-1.74-.24-3.57-.4-5.44-1.88 3.05-3.01 6.38-4.53 9.51-.41.84-.44 2.17-1.83 2.15ZM204.3 639.98c.01 12 .05 23.99.03 35.99 0 5.92-.11 11.84-.17 17.76-.17.19-.36.21-.58.09a2.7 2.7 0 0 1-.43-.53c-.28-.51-.73-.92-.95-1.47-1.06-3.2.25-6.36.16-9.5-.14-4.68.69-9.4-.05-14-.79-4.88-.35-9.78-.86-14.65-.03-.25-.41-.32-.57-.54 1.21-3.2 2.29-6.33.74-9.83-.72-1.63.93-3.03 1.5-4.54 1.01-.19.72.89 1.19 1.22ZM434.02 317.57c.25 1.27-.47 1.48-1.71.88-.9-.43-1.78-.92-2.64-1.44-1.41-.84-2.78-1.5-4.56-1.5-2.81 0-3.77-2.14-2.25-4.53 1.91-3 6.59-2.91 9.2.16 1.5 1.77 1.83 3.89 1.96 6.42ZM455.08 367.85c-.17-.88-.34-1.75-.57-2.91-3.1 2.17-6.07 4.32-9.12 6.35-.97.64-.55 1.39-.55 2.15-.03 5.05.64 10.19-1.52 15.01-.9 2.02-2.26 3.73-4.15 4.92-3.52 2.21-6.89 1-8.08-2.96-.44-1.47-.76-3-.55-4.57.62-.35.74.18.96.54.3 1.22.51 2.46.91 3.65 1.06 3.17 3.68 4.01 6.42 2 2.27-1.66 3.67-3.91 4.32-6.72 1.02-4.47.15-9.04.78-13.54.11-.77.11-1.2.73-1.61 2.52-1.65 4.69-3.74 6.98-5.68.35-.29.76-.81 1.09-.78 2.2.22 1.97-1.53 2.38-2.77 1.35 2.21 1.34 5.01-.03 6.92Z"/>
    <path class="cls-1" d="M455.08 367.85c.33-2.3.32-4.61.03-6.92-.03-1.29.29-2.47 1.19-3.8.97 1.4.94 2.8.95 4.17.02 2.99.12 5.96.57 8.95.96 6.37 5.57 8.9 11.73 6.65.33-.12.66-.26.99-.4.49.38.8.82.52 1.47-8.37 4.83-13.9.17-15.77-7.42-.21-.87-.16-1.8-.22-2.7ZM298.16 283.67c-.67-1.22-1.47-1.92-2.69-.61-.43.46-.8.18-1.21.03 7.04-5.86 12.02-13.25 15.96-21.42 0 1.42.36 2.92-.96 4.05-.52.44-.14.82.06 1.36.63 1.73 1 3.56-.63 5.07 0-1.35-.45-1.19-1.01-.26-1.95 3.19-4 6.3-6.59 9.02-.93.98-1.64 2.18-2.93 2.77ZM385.34 424.58c1.78.95 2.2 2.43 1.67 4.29-.99-.23-1.41.41-1.87 1.13-6.22 9.84-11.97 19.91-14.89 31.34-.27 1.05-.41 2.23-1.62 2.75-.81-.11-.59-.9-.87-1.35.86-6.35 3.34-12.16 5.87-17.96 2.95-6.75 6.9-12.96 10.61-19.29.24-.4.49-.89 1.09-.9ZM343.17 472.64c-.56-1.28-1.15-.38-1.47.09-.34.51-.42 1.18-1.21 1.19 1.78-6.65 4.65-12.89 6.98-19.33 1.21-3.33 3.37-6.33 3.48-10.05 1.14 1.95-.18 4.25.9 6.21.22.95-.06 1.83-.41 2.69-2.38 5.89-4.69 11.8-6.76 17.81-.22.64-.24 1.79-1.51 1.39ZM202.05 466.51c-.43-2.73.48-5.56-.54-8.25-.74-.77-.4-1.85-.75-2.73-.04-.84.57-1.85-.6-2.41-.61-.59-.27-1.02.23-1.42.66-.65-.09-1.18-.16-1.76-.04-.24-.02-.48.05-.72.38-.77.62-1.57.68-2.42.29-1.05-1.88-1.27-.88-2.57.57-.44.8-1.02.64-1.74 0-.36.06-.7.12-1.05.2-.83.13-1.65-.13-2.46-.02-.25 0-.5.07-.74.45-3.25.01-6.53.35-9.77.9-.73-.48-1-.33-1.57 1.4-1.02-.4-1.02-.5-1.56-.36-.49 1.15-.82.13-1.42-.06-.04.25-.35.53-.24.41-.19.81-.39 1.22-.58.7 6.24.21 12.51.41 18.77.36 11.25.6 22.51.88 33.76.01.43-.17.87-.27 1.31-1.14-1.57-2.17-2.92-1.06-5.23.67-1.39-.02-3.44-.1-5.19ZM197.13 454.96c-.59-.2-1.18-.41-1.77-.61-.71-7.32-.55-14.67-.79-22.01-.23-6.91.07-13.84-.52-20.75-.05-.6-.31-1.28.29-1.8-.1 1.16.57 2 1.15 2.89.62.68.89 1.45.58 2.36-.2 2.13.03 4.26-.16 6.39-.18 1.75.09 3.46.37 5.18.48 3.03 1.82 5.97.87 9.16-.18.6.05 1.35.38 1.85 1.37 2.09.62 4.01-.41 5.85-.5.89.06 1.83-.42 2.65-.55 2.09.26 4.06.58 6.06.07.22.1.44.11.67-.08.52-.14 1.05 0 1.57 0 .22-.08.4-.26.53ZM92.31 430.89c.09-1.36 1.22-2.02 2.16-1.94.96.08.41 1.6.99 2.29.41.49-.69 1.43.33 1.55.78.09 1.24-.51.68-1.37 2.88-1.76 1.62-6.07 4.73-7.69-2.54 5.67-4.07 11.69-6.13 17.53-.14.39 0 .93-.61 1.05-.51-.72-.06-1.34.16-2.02.18-.55.4-1.53-.23-1.57-.74-.04-2.1-.36-2.29.76-.16.97-.74 1.74-.79 2.79-.11 2.22-.76 4.35-2.97 5.53-.81-1.05-.22-2.09.11-3.08 1.19-3.6 2.31-7.22 3.62-10.77.36-.97 1.01-1.98.23-3.06ZM199.9 750.33c1.2 1.04.89 2.59.81 3.76-.09 1.45.58 2.45.91 3.97 1.62-1.79.56-4 1.6-5.6 1.07 2.28.21 4.67.3 7 .21 5.26.12 10.53.02 15.8-.02.95.36 2.22-1.3 3.21-.78-9.58-2.15-18.8-2.35-28.14ZM245.56 280.43c.88-2.72-.79-5.57.4-8.27 2.5-6.44 4.41-13.1 6.34-19.74 1.18-4.05 2.78-7.93 4.09-11.93 1-.43 1.72.28 2.52.68-2.03 6.79-3.92 13.63-6.12 20.36-2.1 6.42-4.23 12.85-7.23 18.9ZM197.13 542.26c-.76 3.35-.22 6.75.09 10.06.26 2.79-.49 5.64.59 8.43.25.65 2.06 2.4-.49 2.92 1.44 1.85-.83 4.4 1.17 6.14-1.23 1.2.23 2.41-.03 3.56-.18.78-.92 1.34-1.88 1.29-.56-5.91-.22-11.85-.34-17.77-.19-9.09-.25-18.18-.34-27.27 0-.91.11-1.82.16-2.72.18-.25.36-.26.54-.01.79.91.11 1.83 0 2.74.89 1.93 1.37 3.92 1.09 6.06-.37 1.09.2 2.19 0 3.29-.45.23-.52.66-.55 1.1-.15.73-.5 1.47 0 2.2ZM475.92 281.38c-1.7-.9-2.15-2.05-.97-3.68.23-.32.14-.74-.14-1-.55-.5-1.02-.11-1.41.26-1.02.96-1.84 1.08-3.22.27-1.9-1.12-3.08-.09-2.74 2.2.37 2.43.76 4.83-.08 7.24-.16.45-.06.92.38 1.2.63.41 1.03-.07 1.36-.48.79-.99 1.72-1.93 2.26-3.05.86-1.81 1.77-2.8 3.78-1.4.43.3 1.21.46 1.55-.49-.25-.37-.42-.9-.77-1.08Zm-5.09-.33c-.11.21-.26.39-.4.58l-.02.02c-.04.18-.08.37-.14.55-.13.41-.68.49-.91.12-.06-.09-.08-.19-.13-.28-.02-.04-.04-.08-.05-.12-.25-.54-.37-1.14-.4-1.74-.3-.6-.51-1.3 0-1.85.01-.01.03-.02.04-.03 0-.01.01-.03.02-.04a.5.5 0 0 1 .42-.13c.02 0 .04-.01.07-.01.25 0 .53.23.5.5.11.09.24.18.34.28.26.25.54.54.7.87.21.43.19.87-.03 1.29ZM132.29 489.39c-.8-.63-1.24-.55-1.67-.35-2.39 1.15-3.02.91-3.85-1.54-.26-.77-.37-1.6-.67-2.35-.32-.79-.32-2.15-1.45-2.02-.95.11-.88 1.32-1.09 2.2-.61 2.58-.59 5.5-3.17 7.13-.28.32-.6.61-.94.87-.11.16-.22.32-.35.47-.25.31-.51.63-.78.93-.06.11-.1.21-.12.32.19-.08.38-.16.57-.22.59-.19 1.28-.32 1.92-.25.7-.14 1.42.25 2.12.65 1.21.69 2.12 1.7 2.76 2.95.26.5.08 1.48 1.05 1.22.74-.19.82-.99.73-1.61-.34-2.36.53-4.3 2.06-5.96.83-.91 1.88-1.62 2.88-2.47Zm-5.3 4.21c-.29.43-.32.87-.47 1.36-.16.53.06 1.52-.55 1.34-.53-.16-1.48-1.13-1.91-1.45-.44-.32-1.03-.55-1.28-1.08-.11-.25-1.59-.44-1.51-.68-.11-.47 1.23-.81 1.34-1.34.13-.62.51-1.3.84-1.83.76-1.21.83-2.68 1.06-4.06.09-.56.44.01.52.56.14.89.53 1.58.94 2.44.25.53.75 1.34 1.24 1.78 1.44 1.29.48 1.91-.22 2.95ZM200.99 622.41c.24-.91 3.38-1.06.73-2.75-.04-.02-.03-.23 0-.24 3.45-1.58-1.02-4.56 1.13-6.36-2.15-1.75.6-4.5-1.32-6.37-.8-.78.61-1.17.66-1.77.09-1.09 3.03-2.27-.13-3.42-.55-.2.31-2.15-.59-3.11.51-.48.82-1.24 1.69-1.24.56.18.68.79 1.1 1.1 0 8.05.02 16.1.03 24.16-.4.37-.22.74 0 1.1 0 .18-.02.36-.03.54-.54.95-1.25.84-2.02.31-.72-.46.24-2-1.26-1.97ZM430.53 234.4c-.26-1.84-1.58-.22-2.26-.69 4.17-5.56 7.1-11.75 9.19-18.35.24-.77.44-1.59 1.19-2.08-.62 2.14.14 4.63-1.87 6.47-.52.47-1.11 1.66-.49 2.73 1.23-.06.94-1.76 2.07-1.87-2.09 4.89-3.83 9.99-7.83 13.79ZM433.96 339.46c-4.85 1.01-7.95-3.04-12.05-4.57.06 6.14 1.35 11.91.25 17.72-.91-1.28-.72-2.74-.82-4.11-.32-4.17-.48-8.35-.75-12.52-.13-1.99.6-2.75 2.58-2.04 1.1.39 2.29.54 3.26 1.31 1.92 1.54 3.9 2.95 6.51 3.09.38.02 1.15.21 1.02 1.13ZM443.95 294.86c1.86 0 2.71 1.12 1.69 2.53-1.42 1.98-2.9 3.96-4.99 5.33-.69.45-1.39.91-2.24.29-.81-.59-1.11-1.37-1.04-2.35.2-2.78 3.6-5.79 6.58-5.8ZM397.09 346.41c-.51-.37-1.08-.66-1.66-.91-1.16-.5-2.35-.95-3.37-1.36-1.09.16-1.72.48-1.66 1.58.08 1.44.55 2.7 1.62 3.65.81.71 1.33 1.42 1.14 2.57-.16.95-.01 1.97 1.18 2.08 1.14.11 1.35-.82 1.66-1.76.35-1.09.29-2.45 1.39-3.17.76-.51 2.34-.24 2.22-1.49-.11-1.2-1.72-.61-2.51-1.19Zm-1.1 1.58c-.38.39-.65.72-.93 1.18-.1.17-.29.26-.48.24-.24.03-.44-.14-.53-.36-.05-.12-.09-.23-.14-.35 0-.02-.05-.11 0-.01-.01-.03-.02-.05-.03-.08-.02-.06-.05-.11-.08-.17a6.245 6.245 0 0 0-.57-1.02c-.02-.02-.03-.05-.05-.07l-.04-.05c.03.05-.02-.03-.03-.03-.02-.03-.05-.06-.07-.08-.08-.1-.17-.19-.27-.28-.05-.04-.1-.09-.15-.13 0 0-.08-.06-.03-.03.05.04-.05-.03-.06-.04-.23-.16-.32-.43-.18-.68.12-.23.47-.33.68-.18.22.15.46.29.7.41.12.06.24.11.36.16.02 0 .02.01.03.01.02.01.05.02.07.03.06.02.12.05.18.07.51.2 1.02.4 1.49.68.28.16.33.56.1.79ZM241.49 285.84c.01 1.49.02 2.98.04 4.48-.84.45-1.22 1.2-1.66 2.05-3.61 7.03-7.17 14.11-11.84 20.54-.43.03-.49-.33-.61-.61 5.21-8.54 9.71-17.45 14.07-26.45ZM412.75 367.17c1.66-.68 2.9-1.27 4.19-1.68.52-.16 1.19-.73 1.73-.02.48.62.49 1.35.2 2.05-.17.42-.5.77-.66 1.19-.57 1.42-2.11 2.89.86 4.27-3.61-.07-3.78-1.67-1.38-6.27-1.21-.12-2.02.78-3.04 1.04-.95.25-1.94.96-2.84.21-.95-.8-.26-1.82-.06-2.78.5-2.38 1.85-4.32 3.15-6.26.95-1.43 2.19-2.67 3.31-3.99.26-.31.35-1.02.92-.67.56.34.43.93.04 1.42-.74.91-1.51 1.81-2.23 2.74-1.93 2.5-3.78 5.05-4.19 8.75ZM439.85 332.43c2.15 0 3.33-2.29 5.3-2.43 3.42-.24 4.31-2.17 4.57-5.22.27-3.06.94-6.08 1.2-9.16.15-1.77.5-3.65 3.13-2.76.34.31.38.64.02.97-.75.07-1.54-.24-1.72 1.09-.63 4.74-1.44 9.45-2.14 14.18-.19 1.32-.07 2.34-2.15 1.69-1.42-.45-3.16.42-4.53 1.41-.79.57-1.67 1-2.52 1.5-.48.22-.94.32-1.37-.11.07-.13.12-.27.13-.42-.25-.28-.23-.53.08-.75ZM349.79 263.42c-.18-.65-.14-1.56-1.21-1.31-.66.15-1.14.61-.9 1.37.37 1.11-.2 1.45-1.14 1.54 1.56-6.24 4.53-11.57 9.86-15.38 1.01-.72 2.1-.81 3.67-.08-6.84 2.4-8.08 8.47-10.27 13.86ZM427.13 193.66c-.21 3.13-.41 6.27-.62 9.4.32 3.19-.86 6.29-.51 9.48.02.6.04 1.19.05 1.79a.71.71 0 0 1-.5.65c-2.16 2.02-1.62 4.68-1.61 7.2-.11.42-.18.87-.61 1.11.22-9.95 1.45-19.79 2.86-29.62.31-.36.62-.36.94-.02Z"/>
    <path class="cls-1" d="M471.07 377.97c-.17-.49-.35-.98-.52-1.47 3.27-3.38 3.42-7.9 4.36-12.11.94-4.18 1.31-8.44 1.71-12.7.04-.45.03-1.03.6-1.02.82.02.63.76.59 1.25-.6 7.61-1.64 15.14-4.08 22.41-.48 1.42-1.08 2.95-2.67 3.65ZM354.14 443.92c.55-1.51-1.85-1.45-1.52-2.84.32-.5.52-1.08.98-1.49 1.78-3.68 3.56-7.37 5.34-11.05.65-.25 1.41-1.72 1.87.16-2.22 5.07-3.94 10.37-6.67 15.22ZM196.56 575.19c1.26.14 1.9.8 1.26 2.01-.48.92-1.04 2.21-.58 2.76 3.06 3.69-.23 7.37.17 11.05.43 3.85-.17 7.77.31 11.65-.34.27-.68.32-1.02 0-.51-6.22-.25-12.45-.22-18.67.01-2.93-.44-5.87.08-8.8ZM204.27 598.26c-.73 0-1.07-.4-1.1-1.1.95-3.27-.46-6.62.29-9.9.02-.09.06-.17.07-.26.12-1.23-2.41.07-1.74-1.88.26-.77 1.8-1.22.66-2.51-.38-.42-.44-1.21.17-2.17.91-1.41.91-3.42.53-5.23-.16-1.1-.88-2.11-.51-3.29.17-.01.35-.02.52-.02l.64-.7c.86 3.11.33 6.28.38 9.42.09 5.88.06 11.76.08 17.64ZM201 504.36c2.06-2.77 2.01-5.73.72-8.77-.17-.4-.65-.78-.27-1.21 1.77-2.01 1.13-4.11.48-6.33-.61-2.08 1.35-4.12.33-6.29.31-.15.63-.29.94-.44.66 3.47.2 6.98.36 10.47.14 3.05 0 6.11.02 9.16 0 .45.12.9.63 1.08-.75 1.22-2.26 1.38-3.21 2.33ZM199.93 729.46c-.08-.37-.73-.69-.09-1.12.21-.37 1.46-.28.38-1.24-.63-.57-.33-1.88-1.23-2.49-.73-1.08-.39-2.29-.46-3.45.02-.27.13-.49.34-.66q1.6.57 2.09 2.47c1.3-2.55-1.4-6.22 2.08-8.45 1.96 1.04.37 2.66.64 3.98.21.54.21 1.09.03 1.64-.47.92-.32 1.83.04 2.74-1.54 1.73-1.76 3.94-1.36 5.95.2.99-.31 1.53-.3 2.29-1.31.22-1.62-.85-2.14-1.65ZM421.65 388.93c-.45-.62-.89-1.19-1.66-.35-.63.69-1.38 1.09-2.35.96 3.19-2.57 6.4-5.13 9.57-7.72.84-.69 1.78-.84 2.4.02.64.89-.23 1.51-.91 1.97-2.43 1.61-4.36 3.88-7.05 5.12ZM439.85 332.43c-.03.25-.05.5-.08.75-2.99-2.15-3.09-5.61-3.67-8.72-.88-4.74-.96-9.56-.62-14.38 1.1-.31.56.78.93 1.09.08 6.17.38 12.31 2.25 18.28.33 1.04 1.31 1.79 1.19 2.98Z"/>
    <path class="cls-1" d="M198.26 720.67c-.33-6.55-.66-13.09-.97-19.64-.01-.24.18-.48.27-.72l.25.08c1.76 1.19 1.33 3.24 1.88 4.9.34 1 .04 2.21.99 3.02.21.18.42.6.29.69-1.68 1.12-1.15 2.99-1.26 4.45-.13 1.72.32 3.53.57 5.3.16 1.16-.49 1.63-1.45 1.9l-.07.04c-.18.25-.35.25-.52-.02ZM271.14 287.38a5.34 5.34 0 0 0 .71 3.34c-1.28-.04-1.66 1.08-2.07 1.88-1.33 2.62-3.13 4.87-5.12 6.99-.66-.19-1.25-.49-1.64-1.09l8.12-11.12ZM202.64 624.06c.55.36 1.09.29 1.63 0 .29 5.31.23 10.62.03 15.93-.37-.37-.73-.74-1.1-1.11-1.86-1.14-1.24-3.31-1.16-4.64.14-2.54-.61-4.98-.32-7.48.11-.98-.02-2.01.92-2.7ZM274.52 284.16c.85-2.48-.12-5.36 1.71-7.62.25-2 .58-3.97 2.55-5.11.75.64 1.16-.81 1.89-.32-1.65 4.54-3.09 9.18-6.15 13.05ZM368.46 459.91c.48.31.53.85.61 1.37.82 1.02.63 2.22.4 3.36-.87 4.27-.92 8.55-.4 12.87.14 1.16.27 2.37-.69 3.28-.32.2-.64.39-.96.59-1.05-7.24-1.35-14.43 1.03-21.47ZM199.27 322.11c-.77-.01-1.29-.4-1.58-1.1l.54-.54c-.44-.67-.53-1.42-.52-2.2.03-.08.09-.16.1-.25.28-2.67 1.15-5.46.63-7.96-.36-1.74-.6-3.51-.9-5.27-.19-1.1-.12-1.86 1.31-1.34.6 4.03.25 8.09.44 12.13.1 2.18 0 4.36-.02 6.54ZM196.61 526.87c-.18 0-.36 0-.54.01-.38-3.06-.25-6.13-.12-9.2.05-1.13.39-2.35-.45-3.38.54-.81 1.44-1.16 2.18-1.71 1.5 2.09 1.13 4.26.14 6.37-1.19 2.54-.64 5.3-1.21 7.91ZM203.67 718.49c-.99-1.21.55-2.7-.43-3.91-.75-2.25-.48-4.58-.51-6.88.28-1.06.18-2.12.05-3.19.06-1.35-.22-2.71.03-4.06.13-.67.26-1.35.14-2.04-.12-.68-.5-1.28-.67-1.95.09-1.12-.44-2.55 1.4-2.79.16.02.32.03.48.06 0 7.74-.02 15.48-.02 23.22 0 .57-.13 1.08-.47 1.53ZM491.45 337.52c-3.71 3.51-8.2 6.04-11.98 9.46-.56.5-1.28.68-1.66.11-.45-.68.35-1.14.83-1.48 4.07-2.91 8.16-5.79 12.24-8.68.5-.11.75.03.57.59Z"/>
    <path class="cls-1" d="M280.67 271.11c-.61.04-.9 1.15-1.72.52-1.65-.63-.7-1.78-.56-2.77.8-1.49 1.56-3 2.42-4.46.32-.55.61-1.41 1.62-.84 1 .57.73 1.27.31 2.03-.38.71-.73 1.44-1.09 2.16-.96.92-.62 2.24-1.04 3.33l.05.03ZM454.58 341.86c.03 1.1-.4 1.23-1.18.88-1.27-.56-3.65-3.95-3.49-5.25.09-.72.16-1.87 1.27-1.73.75.09 1.92.39 1.32 1.74-.43.97.45 1.47.79 2.15.4.8.9 1.55 1.29 2.22ZM231.74 345.77c-.39 1.41-1.65 2.08-2.78 2.33-2.2.49-3.99 1.91-6.16 2.36-.86.18-1.24.8-1.79 1.41-.98 1.09-2.3 1.7-3.63.31 4.68-2.39 9.47-4.51 14.37-6.41ZM476.46 325.88c.3-1.18-.36-1.17-1.2-.98-1.96.43-3.73 1.34-5.58 2.06-1.12.43-2.28 1.16-3.84-.01 3.26-1.07 6.1-2.51 9.23-3.15.86-.18 1.93-.67 2.55.21.59.82.05 1.74-.49 2.51-.54.14-.78-.06-.69-.63ZM259.23 226.56c.69 1.15 1.38 1.05 2.08 0-.05 3.02-.67 5.93-1.66 8.78-1.39.1-1.69-.97-2.08-1.95-.04-2.42.3-4.75 1.66-6.83ZM456.69 315.03c1.71 1.28 2.71 3.13 3.79 4.89.91 1.5 2.07 2.74 3.31 3.94.35.34.94.84.43 1.36-.55.56-.91-.11-1.3-.45-2.96-2.52-4.57-6.04-6.78-9.11-.24-.58.11-.65.55-.63ZM263.02 298.5c.81-.03 1.57.01 1.64 1.09-1.06 1.99-2.61 3.54-4.4 4.86.14-2.23-1.36-.92-2.2-1.02 1.66-1.64 3.31-3.29 4.97-4.93ZM431.28 205.48c-.73-.41-1.6-.35-2.52.23-1.86 1.19-1.59 2.89-1.16 4.43.37 1.31 1.49.78 2.47.58.19-.95.39-1.89.59-2.84.14-.67.27-1.35.52-2 .02-.14.05-.28.09-.41ZM438.87 353.15c-3.26 1.13-4.86-.65-4.56-4.07.11-1.28.92-1.86 1.98-1.64 1.16.24.76 1.12.4 1.93-.89 1.98 1.14 2.47 2.18 3.77Z"/>
    <path class="cls-1" d="M256.3 248.01c-1.14 1.16-1.69.86-1.38-1.68-.17-5.96 2.4-10.47 4.16-15.41 2.48-1.14.32 3.42.88 4.64-.76 4.45-2.52 8.24-3.66 12.44ZM343.18 301.24c-.02 1.27-1 1.89-1.93 1.97-3.77.32-6.98 2.27-10.48 3.36-.59.18-1.25.1-1.88.15 4.61-2.24 9.44-3.89 14.29-5.48ZM496.32 332.51c2.65-2.91 5.95-5.03 9.07-7.39-2.62 2.88-5.19 5.79-8.56 7.85a.751.751 0 0 1-.52-.46ZM429.8 176.49c-.97 4.04-1.47 8.16-1.98 12.28-.79-.37-.24-1.23-.66-1.74.09-3.54.55-7.02 1.71-10.39.29-.13.59-.26.92-.15ZM360.81 428.7c-.54-.99-1.24-.15-1.87-.16.86-2.33 2.26-4.35 3.56-6.43.68-.49 1.08-.42 1.06.52-.61 2.17-1.64 4.14-2.75 6.08ZM473.95 332.39c1.95-.43 3.91-.78 5.87-.06.57.21 1.44.32 1.2 1.18-.32 1.14-1.07.21-1.47.05-1.62-.63-3.15-.51-4.8-.03-1.67.48-2.18-.04-2.01-1.57.58-.35.8.3 1.22.43ZM225.28 316.72c-1.46 2.06-3.17 3.9-4.99 5.63-.43.41-.94 1.14-1.53.36-.46-.6.32-.88.68-1.22 1.83-1.71 3.59-3.48 5.15-5.44.54-.1.79.11.7.67ZM391.98 239.74c.69 3.15-.49 5.13-4.27 7.18 1.13-2.57 2.8-4.81 4.27-7.18ZM247.1 339.12c-.94 1.84-3.36 3.61-4.31 3.38-2.1-.49-3.32.92-4.97 1.07-.14-.1-.19-.21-.15-.33.04-.12.08-.18.12-.18 3.03-1.49 6.08-2.95 9.32-3.94ZM489.77 212.86c-.28-.82-1.2-.97-1.67-1.59 2-.59 4-1.18 6.01-1.77.6-.14.77.13.67.68-1.64.95-3.06 2.3-5.01 2.68ZM278.4 268.86c.17.93-.4 2 .56 2.77-1.29 1.43-1.95 3.2-2.73 4.91 0-.83-.42-1.39-1.18-1.69 1.12-2 2.24-3.99 3.36-5.99Z"/>
    <path class="cls-1" d="M363.56 422.62c-.24-.4-.61-.53-1.06-.52.89-2.06 2.16-3.85 3.78-5.43-.27 2.31-1.55 4.1-2.72 5.95ZM93.35 423.63c-.51 1.54-.12 3.9-3.09 3.16-.5-.12-1.08.89-1.9.68 1.41-1.61 2.91-3.1 4.99-3.84ZM425.94 365.52c.37-.99.89-2.41 1.47-3.82.06-.16.54-.33.65-.25.27.19.63.54.6.79-.17 1.54-.9 2.89-1.74 4.16-.1.15-.49.19-.71.14-.24-.05-.5-.23-.27-1.02ZM496.32 332.51l.52.46c-1.65 1.69-3.24 3.45-5.39 4.56-.19-.2-.38-.39-.57-.59 1.64-1.7 3.36-3.28 5.44-4.43ZM431.31 365.66c-.47.85.17 2.26-1.06 3.01-.14.08-.58-.06-.67-.22-.56-1.07.04-2.12.12-3.18.05-.61.09-1.46.96-1.32.75.12.82.85.64 1.71ZM257.71 242.49c-1.71-.3-.11-1.75-.89-2.37-.79-1.23-.26-2.16.71-2.99 2.07-.78 2.46 0 1.78 1.8.05.17 0 .3-.16.4-.99.69-.85 1.87-1.29 2.79.05.16 0 .29-.15.37ZM427.16 187.03c.68.41.48 1.14.66 1.74-.06 1.65-.17 3.3-.69 4.88-.31 0-.63.01-.94.02.45-2.2.15-4.5.97-6.64ZM473.95 332.39c-.41-.14-.81-.28-1.22-.43 1.24-2.03 2.49-4.05 3.73-6.08l.69.63c-.5 2.27-2.57 3.69-3.2 5.88ZM436.41 311.17l-.93-1.09c.06-1.9-.47-3.88.93-5.95.29 2.59.11 4.81 0 7.04ZM120.27 350.64c-2.48.33-.99 2.93-2.27 3.98-.47.39.18 1.6-1.04 1.52.47-2.48 1.23-4.87 2.17-7.21l1.14 1.71ZM470.9 343.39c-1.86.11-3.73.22-5.59.34 1.71-1.67 3.61-1.43 5.53-1.05l.06.71ZM446.18 350.49c-.15.66-.42 1.09-.93.94-.85-.24-1.76-.51-1.56-1.76.11-.68.33-1.33 1.09-1.24 1.3.16.23 1.88 1.39 2.05Z"/>
    <path class="cls-1" d="M259.23 238.79c-.08-1.03-.05-2.21-1.64-1.23-1.14-1.46-.64-2.7.52-3.85.65.41.72 1.37 1.54 1.63.02 1.17.15 2.36-.41 3.46ZM76.39 437.55c.35 2.9-1.99 3.05-3.82 3.72 1.04-1.48 2.33-2.69 3.82-3.72ZM225.28 316.72l-.7-.67c.95-1.26 1.9-2.52 2.84-3.78l.61.61c-.59 1.52-1.7 2.65-2.76 3.83ZM196.71 602.66h1.02c1.67.93.98 1.84-.04 2.73-.25.02-.5.05-.75.07-.57-.89-.34-1.85-.24-2.8ZM465.25 339.31c1.54-.66 3.1-.76 5.39-.21-2.22.87-3.79.77-5.39.21ZM199.4 724.5c1.77.62.64 2.62 1.66 3.63.04.04-.78.18-1.21.21-.17-1-.31-2.02-1.15-2.75a.716.716 0 0 1 .02-.5c.09-.35.32-.55.69-.59ZM439.65 333.59c.46.04.91.07 1.37.11-.82.89-1.59 1.83-2.77 2.28-.55.06-.77-.18-.66-.72.52-.76 1.13-1.42 2.06-1.67ZM203.23 480.78c-1.92-1.32-1.93-2.01-.03-3.3.14 1.1.51 2.2.03 3.3ZM343.74 268.32c.17 2.56-1.72 2.49-3.41 2.67 1.16-.86 1.99-2.14 3.41-2.67ZM237.78 343.06c0 .17.02.34.03.51-.58 2.16-2.19.91-3.39 1.02 1.03-.7 2.09-1.33 3.36-1.52Z"/>
    <path class="cls-1" d="m437.59 335.26.66.72c-.6.85-1.01 1.89-2.13 2.23-.11.03-.42-.18-.41-.25.1-1.26 1.01-1.97 1.88-2.7ZM388.28 419.24c-1.36-1.72-.63-3.67-.59-5.54.8 1.78.25 3.71.59 5.54ZM199.4 724.5c-.23.2-.46.39-.69.59-.79-1.41-.58-2.91-.45-4.42.17 0 .34 0 .52.02.08 1.29-.23 2.65.62 3.81ZM431.5 386.38l-.96-.54c-.09-.8-.27-1.61.22-2.54 1.34.82.61 2.07.74 3.08ZM305.83 452.63c.48-.67 1.21-1.33.01-2.01.76-.22 1.87-.51 1.99.42.15 1.11-1.02 1.43-2.01 1.59ZM456.69 315.03c-.18.21-.36.42-.55.63-.69-.61-1.38-1.22-2.08-1.83 0-.32-.02-.65-.02-.97 1.18.36 2.16.96 2.65 2.16ZM95.47 421.88c-.47.88-.23 2.61-2.13 1.75.32-1.06 1.06-1.6 2.13-1.75ZM429.79 176.89c-.38.02-.89 1.92-1.16.49.27-2 .53-4 .8-5.99.42-.74 1.2-2.93 1.18-2.04-.05 2.31-.52 5.01-.82 7.55ZM494.78 210.18c-.22-.23-.45-.45-.67-.68.58-.53 1.34-1.48 1.95-.6.51.73-.59 1.07-1.28 1.29ZM280.62 271.08c.05-1.2-.46-2.58 1.04-3.33-.2 1.16-.27 2.35-1.04 3.33ZM258.14 242.11c.18-1.02-.79-2.42.98-2.91-.15 1.03-.34 2.04-.98 2.91ZM345.32 267.1c.03.71.18 1.5-.57 1.89-.17.09-.66-.43-1.01-.67l1.58-1.22ZM362.36 294.03c-.76.75-1.41 1.78-2.73 1.06.72-.85 1.75-.89 2.73-1.06ZM203.74 722.87c-1.61-.89-.54-1.82-.04-2.74.23.91.49 1.82.04 2.74ZM217.38 352.18c-.17 1.44-1.03 1.6-2.2 1.17.58-.68 1.34-1.03 2.2-1.17Z"/>
    <path class="cls-1" d="M364.61 293.1c-.31 1.4-1.39.94-2.27.95.6-.69 1.36-1.02 2.27-.95ZM96.7 420.52c-.27.59.71 2.3-1.24 1.38.09-.75.61-1.12 1.24-1.38ZM313.47 268.76c-.06.59-.11 1.58-.77 1.31-.65-.27-.36-1.22.21-1.78.18.16.37.31.55.47ZM273.94 278.08c.23 1 0 1.81-.96 2.31 0-.91.39-1.64.96-2.31ZM296.48 285.25c.1-1.01.62-1.58 1.67-1.58-.31.79-.99 1.18-1.67 1.58ZM204.3 623.51c-.43-.06-.97-.06-.85-.67.04-.19.55-.29.84-.43.13.37.58.73 0 1.1ZM393.13 237.55c.06.79.11 1.58-1 1.67-.12-.83.5-1.22 1-1.67ZM353.6 439.59c.12.79-.36 1.19-.98 1.49-.02-.5-.05-1.01-.07-1.51.35 0 .7.01 1.06.02ZM109.75 410.91c2.78-1.94 5.32-4.22 8.36-5.78-.24.41.8 1.05-.42 1.38-1.58.43-3.03 1.19-3.72 2.94-.46 1.15-3.31 2.03-4.22 1.45ZM130.12 397.3c2-1.62 4.19-2.94 6.57-3.93-1.07 3.18-3.92 3.4-6.57 3.93ZM103.78 413.79c.26.23-.2 1.36.84.65.95-.66 1.77-1.53 2.92-1.87.04.5.35 1.34-.26 1.37-1.58.06-2.08 2.18-3.64 1.86-1.27-.26-.29-1.31-.38-2h.52ZM118.57 404.81c.36-.65.93-.95 1.66-.98-.24.86-.08 2.4-1.66.98ZM190.37 364.83c.61-.68 1.4-1.01 2.28-1.15-.25 1.39-.85 2.08-2.28 1.15Z"/>
    <path class="cls-1" d="M107.53 412.57c.59-.75 1.31-1.32 2.21-1.65-.03 1.5-1.01 1.72-2.21 1.65ZM22 580.68c.33-.69.85-1.11 1.65-1.1.01 1.21-.84 1.12-1.65 1.1ZM146.9 534.39c.3-.75.79-1.17 1.7-.77-.38.68-1.04.69-1.7.77ZM197.71 318.26c.78.59 1.01 1.31.52 2.2-1.95-.31-1.53-1.19-.52-2.2ZM202.64 624.06c-.08 2.26-.13 4.47.12 6.76.21 1.99.39 4.19.15 6.27-.08.69.01 1.22.3 1.78-.18 1.24.7 2.92-1.38 3.4-.07.02-.15.42-.09.47 3.07 2.54.35 5.81 1.07 8.67.27 1.08-1.31 1.04-1.82 1.74-.89.59-1.1 2.3-2.74 1.65.5-.77-1.49-2.33.8-2.58.03 0 .12-.71-.03-.98-.87-1.6.15-3.41-.28-4.77-.47-1.44-.66-2.4.28-3.53-1.38-1.02-.95-2.5-1.08-3.88-.07-.74-.11-1.26.37-1.97.77-1.13.36-5.24-.21-6.68-.31-.78.56-1.62.16-2.49.13-.54-.49-.68-.57-1.1 0-.18.01-.36.03-.53.36-.56 1.15-1.12 0-1.68 0-.18-.01-.35-.01-.53.39-1 1.56-.96 2.19-1.65h1.11c1.72-.61.9 1.3 1.64 1.65ZM197.69 535.67c-.8-1.94-.88-4.01-1.09-6.06 1.93 1.16 1.42 3.53 2.49 5.15.24.37-.73.87-1.4.91ZM202.64 571.92c.21 1.09 1.82 1.97.51 3.29-2.19-.84-2.21-1.01-.51-3.29ZM197.68 538.96c-1.09-1.1-.81-2.2 0-3.29.26 1.1 2.01 2.2 0 3.29Z"/>
    <path class="cls-1" d="M199.88 622.41c-.39 1-1.39 1.18-2.19 1.65-.4-.55-.42-1.1 0-1.65.73.55 1.45.02 2.18 0ZM197.13 542.26c-.75-.73-.76-1.46 0-2.2 1.32.73-.07 1.47 0 2.2ZM197.69 616.92c-.77-.73-.3-1.46 0-2.2 1 .73.27 1.46 0 2.2ZM197.71 607.62c-.01-.46.06-.88.51-1.13.07.48 1.07.5.64 1.16-.32.49-.77.05-1.15-.03ZM124.22 346.3c-.54 3.23-1.52 6.33-2.81 9.34-.4-1.26-1.6-2.41-.59-3.89 1.19-1.34 2.16-2.76 2.24-4.65.03-.66.58-.81 1.16-.79ZM352.46 453.44c-.69-.82-.33-1.89-.64-2.8 1.22.7.57 1.83.64 2.8ZM192.83 363.3l-.09-11.55c.93 2.19.97 4.55.67 6.8-.21 1.58 1.3 3.41-.58 4.75ZM179.39 137.17c-.71-2.19-1.78-3.85.18-5.36.57-.44.11-1.01-.08-1.5-.16-.42-.55-.88-.2-1.28 3.6-4.08 1.98-9.39 3.32-13.99.18-.63.2-1.4.95-1.45 1.52-.11 1.54 2 1.48 2.07-.96 1.39 0 2.89-.35 4.32-.35 1.43-1.04 2.65-1.57 3.97-.91 2.28-.25 4.81-1.11 7.13-.72 1.94-1.07 4.03-2.62 6.08ZM176.83 144.78c.9.34.8.96.62 1.75-.3 1.29-.56 2.6-.62 4.08-1.09-.66-3.37-.61-1.28-2.98.68-.77-.2-2.36 1.28-2.85ZM178.24 140.6c.44-.04.7.19.7.6 0 .54-.39.8-.84.95-.46.15-.69-.1-.66-.53.04-.48.33-.84.79-1.02ZM176.82 144.78c-.82-.34-1.06-.87-.52-1.62.22-.3.38-.05.6.08.97.58.39 1.05-.08 1.54ZM425.56 214.58c.17-.21.33-.43.5-.64 2.85-.23 3.59.73 2.3 3.37-.53 1.09-.29 3.2-1.95 3.03-1.14-.12-.07-2-.7-3.06-.41-.68-.12-1.78-.15-2.69ZM195.57 414.87c.85-.76-.74-1.43-.08-2.18.22-.28.67-.75.62-.82-1.96-2.5.02-5.47-1.12-8.23-.99-2.39-.14-5.3.33-7.93.48-2.72 1.41-5.37.51-8.16-.07-.22.13-.52.2-.79.22-.8 0-3.9-.71-4.53-.9-.78.22-1.42-.18-2.04 1.77-.76 1.67-1.3-.18-1.68-.11-.02-.25-.37-.25-.38 3.12-2.29-.8-4.34-.14-6.82.72 1.22 2 1.09 2.56.57.83-.76 1.56-1.08 2.6-.95-.7 1.32 1.28 2.36.54 3.45-1.06 1.59.16 3.33-.52 4.71-.98 1.99.51 4.35-1.15 6.21-.1.11.23 1.79.71 2.59 1.2 2 1.17 1.96.17 4.56-.22.57.84.96.86 1.83.06 2.76.62 5.55.43 8.28-.22 3.06.5 6.07.11 9.11-.04.33.62.71-.16 1.01-1.6.63-1.59 1.03.18 1.28.54.08.52.26-.44 1.46-.1.44-.94.04-.82.68.49 2.7.19 2.93-2.59 1.98-.42-1.1-1.09-2.1-1.46-3.23Z"/>
    <path class="cls-1" d="M197.14 417.64c.76.8 1.64.11 2.46.33.31-1.21-.68-1.67-1.19-2.52h2.03c.67 2.71 1.55 5.41.54 8.23-.1.57.28 1.3-.53 1.65.18.55.28 1.12.55 1.64.32.3 1.17.34.53 1.1-1.13 3.43-.28 6.97-.55 10.44 0 .18.01.37.02.55.3.9-.34 1.97.52 2.76-.18.18-.36.35-.54.53-.28.71.12 1.58-.55 2.19-.61.78 0 .83.53.83 1.28.02.79.74.56 1.36-.39.91-.33 1.99-1.09 2.75-2.75 1.63-3.77 1.11-3.96-2.04-.03-.47-.29-.83-.37-1.26.02-2.23.54-4.3 2.03-6.03-1.39-.47-1.03-1.78-1.38-2.77-.14-.41-.57-.72-.4-1.23 1.38-4.11-.94-7.86-1.12-11.82-.04-.96-.27-1.93.27-2.84.43-1.11.36-2.25.32-3.42-.04-1.23.45-1.61 1.32-.43ZM121.42 355.61c-.19 1.95-.82 3.77-1.67 5.52.03-2-.26-4.1 1.67-5.52ZM198.24 654.8c.61-.04.99-.31 1.12-.96.19-.97.8-1.11 1.62-.68.37.18 1.27-.4 1.09.5-.72 3.61 2.03 7.24-.12 10.83-.07.11.08.72.13.82 2.1 4.01.85 8.1.65 12.22-.07 1.36.15 3.12.59 4.58.44 1.47-1.84 2.84.01 4.21-2.8 1.62.43 4-.74 5.82.16.57.82.67 1.08 1.14v.41c-1.06.69-.77 1.84-.97 2.82.13 1 .02 1.99-.13 2.97-.2 1.28-.87 2.31-2.23 2.35-1.67.04-1.4-1.57-1.89-2.55-.29-.57 1.07-1.29-.23-1.64-.62-.4.04-.71.08-1.06.68-.94.2-1.87-.03-2.8.07-.49 1.36-.78.28-1.45-.96-.6-.82-1.57-.37-2.11 1.01-1.2.68-2.81.34-3.65-.56-1.36.15-2.5-.13-3.71-.15-.65 1.2-1.6-.42-2.01-.1-.03-.25-.36-.2-.47 1.34-2.78.52-5.87 1.26-8.66.49-1.84-1.58-2.61-.98-4.22.94-2.48-.38-5.52 1.88-7.7.34-.33-.33-2.46-.81-2.53-1.87-.28-.31-1.77-.91-2.48Z"/>
    <path class="cls-1" d="M198.23 697.63c.65-.42 1.32-.25 2.12-.16-.39.9-2.33.96-1.22 2.24.47.54 0 1.95 1.3 1.64.92-.22 1.74-.94 1.54-1.94-.23-1.17.27-2 .74-2.9.56.41.74 1.02.87 1.66-.7.66-.07 1.53-.37 2.26.27 1.45.2 2.89-.01 4.34-.47.93-.23 1.85.03 2.77-.19 2.35.61 4.71 0 7.06-2.21 2.77-.92 6.12-1.53 9.16-.06.32.13.68-.25.91-1.99-.61-.4-3.55-2.62-4.02.44-.61 1.62-1.32.75-1.98-1.33-1.01 1.02-2.44-.77-3.5-.68-.4.38-2.42.51-3.71.1-1-1-2.55 1.75-2.37-1.68-.33-1.81-1-1.88-2.24-.12-2.17-.89-4.3-1.39-6.45.14-.92.28-1.84.41-2.77ZM198.28 693.77c1.15.92 1.78 1.85.03 2.8-.37-.93-.88-1.86-.03-2.8ZM197.71 624.59c.68.05 1.42-.05 1.89.78-.66.31-1.27.61-1.88.9v-1.68ZM197.69 626.8c.39.43 1.29-.05 1.41.69.05.33-.5.37-.84.41-.34-.29-1.23-.3-.57-1.1ZM197.13 454.96v-.55c-.37-.56.47-1.1.03-1.66-.11-1.64.87-2.22 2.27-2.11.79.06 2.18-.12 1.53 1.53-.22.15-1.03-.22-.53.59 1.14.71.35 1.83.57 2.73 2.03.57-.06 1.91.52 2.76-1.48.83-1.19 2.09-.78 3.35.24.72 0 1.38-.51 1.71-.88.58-1.73-.09-2.5-.48-.5-.26-.71-.6-.48-1.48.5-1.97.46-4.07.6-6.12 0-.07-.46-.18-.7-.26ZM199.93 729.46c.71.55 1.43 1.1 2.14 1.65 1.09.9.41 2.07.31 3.04-.37 3.45.47 7.01-1.04 10.83-2.25-5.32-1.24-10.48-1.41-15.53ZM203.68 693.27q-1.53-.15-1.08-1.14c.73.02 1.13.37 1.08 1.14ZM200.98 438.49c-1.1.08-.83-.81-.82-1.33.03-1.86.57-3.62-.22-5.59-.27-.68.29-2.5.4-3.83.03-.31.75.23 1.18.3.5 3.31-.25 6.65.3 9.96.06.35-.5.42-.85.48Z"/>
    <path class="cls-1" d="M200.95 452.19c-1.77-1.52-2.2-1.46-3.8.57-1.23-2.06-1.52-4.26-1.05-6.59 1.16.99 1.19 2.48 2.28 3.73.28-.06 1.16-.24 2.05-.42l1.11 1.41c.63.81.43 1.24-.59 1.3ZM201.52 441.8c-1.07-.3-1.34-1.68-.52-2.76 1.56.66.22 1.86.52 2.76ZM201 455.5c-1.72-.59.47-2-.57-2.73 2.56.41 1.2 1.65.57 2.73ZM201 426.96c-.6-.41-1.57-.69-.55-1.64 1.51.11 1.55.7.55 1.64ZM200.43 444.53c.09-.75-.25-1.62.55-2.19.92 1.01.87 1.77-.55 2.19ZM200.43 449.48c.21-.98.38-1.97 1.09-2.75 0 1.06.2 2.2-1.09 2.75ZM197.14 417.64c-.72-.3-1.46-.29-.89.69.81 1.41.1 2.25-.75 3.15-.24-2.21-.4-4.41.07-6.61.61.87 2.16 1.22 1.57 2.77ZM197.16 452.76c1.41.58.38 1.11-.03 1.66-1.43-.58-.35-1.11.03-1.66ZM203.24 707.52c-1.77-.9-.9-1.84-.03-2.77.06.92.86 1.84.03 2.77ZM203.22 700.42c-.29-.82-1.31-1.76.37-2.26.1.79.29 1.59-.37 2.26ZM202.21 680.4c-.37.01-.38-.25-.34-.5.05-.28-.23-.74.34-.74.11 0 .28.21.32.35.09.35.06.69-.33.88Z"/>
</svg>
