<svg width="15px" height="15px" viewBox="0 0 24 24" xmlns="http://www.w3.org/2000/svg" style="">
  <g fill="none" class="nc-icon-wrapper">
    <path d="M23 16L22.9932 16.001C22.975 17.3505 22.8983 18.1613 22.5645 18.8164C22.181 19.5689 21.5689 20.181 20.8164 20.5645C19.9608 21.0004 18.8398 21 16.5996 21H7.40039C5.16018 21 4.03924 21.0004 3.18359 20.5645C2.43109 20.181 1.81902 19.5689 1.43555 18.8164C0.999573 17.9608 1 16.8398 1 14.5996L0.999027 6.79095C0.999026 6.7817 0.999025 6.77708 1.00096 6.77444C1.00265 6.77213 1.00525 6.77066 1.0081 6.7704C1.01136 6.77009 1.01532 6.77247 1.02325 6.77722L8.82324 11.4541C10.5 12.5 10.7438 12.5779 11.2539 12.709C11.7435 12.8347 12.2566 12.8347 12.7461 12.709C13.2562 12.5779 13.5 12.5 15.1768 11.4541L22.7459 6.94757C22.8279 6.88792 22.8689 6.8581 22.9031 6.85916C22.9329 6.86008 22.9607 6.87425 22.979 6.8978C23 6.92486 23 6.97556 23 7.07696V16Z" fill="url(#6v2woa2er-1783331433241-2020511_mail_existing_0_fqw3wx0se)" data-glass="origin" mask="url(#6v2woa2er-1783331433241-2020511_mail_mask_7cknx5xkc)"></path>
    <path d="M23 16L22.9932 16.001C22.975 17.3505 22.8983 18.1613 22.5645 18.8164C22.181 19.5689 21.5689 20.181 20.8164 20.5645C19.9608 21.0004 18.8398 21 16.5996 21H7.40039C5.16018 21 4.03924 21.0004 3.18359 20.5645C2.43109 20.181 1.81902 19.5689 1.43555 18.8164C0.999573 17.9608 1 16.8398 1 14.5996L0.999027 6.79095C0.999026 6.7817 0.999025 6.77708 1.00096 6.77444C1.00265 6.77213 1.00525 6.77066 1.0081 6.7704C1.01136 6.77009 1.01532 6.77247 1.02325 6.77722L8.82324 11.4541C10.5 12.5 10.7438 12.5779 11.2539 12.709C11.7435 12.8347 12.2566 12.8347 12.7461 12.709C13.2562 12.5779 13.5 12.5 15.1768 11.4541L22.7459 6.94757C22.8279 6.88792 22.8689 6.8581 22.9031 6.85916C22.9329 6.86008 22.9607 6.87425 22.979 6.8978C23 6.92486 23 6.97556 23 7.07696V16Z" fill="url(#6v2woa2er-1783331433241-2020511_mail_existing_0_fqw3wx0se)" data-glass="clone" filter="url(#6v2woa2er-1783331433241-2020511_mail_filter_3ckxs4ka6)" clip-path="url(#6v2woa2er-1783331433241-2020511_mail_clipPath_t0suxxn75)"></path>
    <path d="M6.32242 3H17.6776C18.9074 3 19.5223 3 20.027 3.13409C21.4141 3.50257 22.4974 4.58593 22.8659 5.973C23 6.47775 23 7 23 7C23 7.16425 23 7.24637 22.9879 7.32344C22.955 7.53282 22.8565 7.72635 22.7065 7.87609C22.6513 7.9312 22.5849 7.9795 22.452 8.07611L15.7643 12.9399C14.4115 13.9238 13.7351 14.4157 12.9955 14.6057C12.3424 14.7735 11.6576 14.7735 11.0045 14.6057C10.2649 14.4157 9.5885 13.9238 8.2357 12.9399L1.54798 8.07611C1.41515 7.97951 1.34873 7.9312 1.29352 7.87609C1.14352 7.72635 1.04497 7.53282 1.0121 7.32344C1 7.24637 1 7.16425 1 7C1 7 1 6.47775 1.13409 5.973C1.50257 4.58593 2.58593 3.50257 3.973 3.13409C4.47775 3 5.09264 3 6.32242 3Z" fill="url(#6v2woa2er-1783331433241-2020511_mail_existing_1_y0z3qjoo1)" data-glass="blur"></path>
    <path d="M18.4922 3.00195C19.2078 3.00823 19.6487 3.03321 20.0273 3.13379C21.4142 3.50231 22.4977 4.58578 22.8662 5.97265C23.0003 6.47739 23 6.99998 23 6.99998C23 7.16405 23.0003 7.24623 22.9883 7.32323L22.9512 7.47752C22.9025 7.62714 22.8185 7.76376 22.7061 7.87596C22.6509 7.931 22.5848 7.97967 22.4521 8.07615L15.7646 12.9394L14.8652 13.5888C14.0696 14.1512 13.5498 14.4629 12.9951 14.6054C12.4239 14.7522 11.8283 14.7711 11.251 14.6611L11.0049 14.6054C10.2653 14.4154 9.58815 13.9233 8.23535 12.9394L1.54785 8.07615C1.48156 8.02794 1.43167 7.99192 1.3916 7.96092L1.29395 7.87596C1.14394 7.72622 1.04459 7.53261 1.01172 7.32323C0.99966 7.24623 1 7.16405 1 6.99998C1 6.99998 0.999702 6.47739 1.13379 5.97265C1.50231 4.58578 2.58578 3.50231 3.97266 3.13379C4.47738 2.99971 5.09259 3 6.32227 3H17.6777L18.4922 3.00195ZM6.32227 3.75C5.04507 3.75 4.5522 3.75685 4.16602 3.85937C3.03902 4.15876 2.15877 5.03901 1.85938 6.166C1.8075 6.36138 1.77831 6.57115 1.76367 6.74022C1.75652 6.82286 1.75367 6.89196 1.75195 6.93846C1.75111 6.96133 1.75018 6.97858 1.75 6.98924C1.74991 6.99437 1.75002 6.99811 1.75 6.99998C1.75 7.08624 1.74988 7.13492 1.75098 7.17186C1.75164 7.194 1.75261 7.20405 1.75293 7.20702C1.76115 7.25936 1.78574 7.30825 1.82324 7.34569C1.82552 7.34774 1.83333 7.35381 1.85059 7.36717C1.87983 7.3898 1.91939 7.4189 1.98926 7.46971L8.67676 12.333C10.0818 13.3548 10.6241 13.7331 11.1914 13.8789C11.7219 14.0152 12.2781 14.0152 12.8086 13.8789C13.3759 13.7331 13.9182 13.3548 15.3232 12.333L22.0107 7.46971C22.0806 7.4189 22.1202 7.3898 22.1494 7.36717C22.1667 7.35381 22.1745 7.34774 22.1768 7.34569C22.2143 7.30825 22.2389 7.25937 22.2471 7.20702C22.2474 7.20404 22.2484 7.19399 22.249 7.17186C22.2501 7.13492 22.25 7.08624 22.25 6.99998C22.25 6.99811 22.2501 6.99437 22.25 6.98924C22.2498 6.97858 22.2489 6.96133 22.248 6.93846C22.2463 6.89196 22.2435 6.82286 22.2363 6.74022C22.2217 6.57115 22.1925 6.36138 22.1406 6.166C21.8412 5.03901 20.961 4.15876 19.834 3.85937C19.4478 3.75685 18.9549 3.75 17.6777 3.75H6.32227Z" fill="url(#6v2woa2er-1783331433241-2020511_mail_existing_2_gxtx6r3ov)"></path>
    <defs>
      <linearGradient id="6v2woa2er-1783331433241-2020511_mail_existing_0_fqw3wx0se" x1="11.999" y1="6.763" x2="11.999" y2="21" gradientUnits="userSpaceOnUse">
        <stop stop-color="rgba(250, 237, 125, 1)" data-glass-11="on"></stop>
        <stop offset="1" stop-color="rgba(255, 255, 255, 1)" data-glass-12="on"></stop>
      </linearGradient>
      <linearGradient id="6v2woa2er-1783331433241-2020511_mail_existing_1_y0z3qjoo1" x1="12" y1="3" x2="12" y2="14.732" gradientUnits="userSpaceOnUse">
        <stop stop-color="rgba(227, 227, 229, 0.6)" data-glass-21="on"></stop>
        <stop offset="1" stop-color="rgba(187, 187, 192, 0.6)" data-glass-22="on"></stop>
      </linearGradient>
      <linearGradient id="6v2woa2er-1783331433241-2020511_mail_existing_2_gxtx6r3ov" x1="12" y1="3" x2="12" y2="9.794" gradientUnits="userSpaceOnUse">
        <stop stop-color="rgba(255, 255, 255, 1)" data-glass-light="on"></stop>
        <stop offset="1" stop-color="rgba(255, 255, 255, 1)" stop-opacity="0" data-glass-light="on"></stop>
      </linearGradient>
      <filter id="6v2woa2er-1783331433241-2020511_mail_filter_3ckxs4ka6" x="-100%" y="-100%" width="400%" height="400%" filterUnits="objectBoundingBox" primitiveUnits="userSpaceOnUse">
        <feGaussianBlur stdDeviation="2" x="0%" y="0%" width="100%" height="100%" in="SourceGraphic" edgeMode="none" result="blur"></feGaussianBlur>
      </filter>
      <clipPath id="6v2woa2er-1783331433241-2020511_mail_clipPath_t0suxxn75">
        <path d="M6.32242 3H17.6776C18.9074 3 19.5223 3 20.027 3.13409C21.4141 3.50257 22.4974 4.58593 22.8659 5.973C23 6.47775 23 7 23 7C23 7.16425 23 7.24637 22.9879 7.32344C22.955 7.53282 22.8565 7.72635 22.7065 7.87609C22.6513 7.9312 22.5849 7.9795 22.452 8.07611L15.7643 12.9399C14.4115 13.9238 13.7351 14.4157 12.9955 14.6057C12.3424 14.7735 11.6576 14.7735 11.0045 14.6057C10.2649 14.4157 9.5885 13.9238 8.2357 12.9399L1.54798 8.07611C1.41515 7.97951 1.34873 7.9312 1.29352 7.87609C1.14352 7.72635 1.04497 7.53282 1.0121 7.32344C1 7.24637 1 7.16425 1 7C1 7 1 6.47775 1.13409 5.973C1.50257 4.58593 2.58593 3.50257 3.973 3.13409C4.47775 3 5.09264 3 6.32242 3Z" fill="url(#6v2woa2er-1783331433241-2020511_mail_existing_1_y0z3qjoo1)"></path>
      </clipPath>
      <mask id="6v2woa2er-1783331433241-2020511_mail_mask_7cknx5xkc">
        <rect width="100%" height="100%" fill="#FFF"></rect>
        <path d="M6.32242 3H17.6776C18.9074 3 19.5223 3 20.027 3.13409C21.4141 3.50257 22.4974 4.58593 22.8659 5.973C23 6.47775 23 7 23 7C23 7.16425 23 7.24637 22.9879 7.32344C22.955 7.53282 22.8565 7.72635 22.7065 7.87609C22.6513 7.9312 22.5849 7.9795 22.452 8.07611L15.7643 12.9399C14.4115 13.9238 13.7351 14.4157 12.9955 14.6057C12.3424 14.7735 11.6576 14.7735 11.0045 14.6057C10.2649 14.4157 9.5885 13.9238 8.2357 12.9399L1.54798 8.07611C1.41515 7.97951 1.34873 7.9312 1.29352 7.87609C1.14352 7.72635 1.04497 7.53282 1.0121 7.32344C1 7.24637 1 7.16425 1 7C1 7 1 6.47775 1.13409 5.973C1.50257 4.58593 2.58593 3.50257 3.973 3.13409C4.47775 3 5.09264 3 6.32242 3Z" fill="#000"></path>
      </mask>
    </defs>
  </g>
</svg>