<svg width="15px" height="15px" viewBox="0 0 24 24" xmlns="http://www.w3.org/2000/svg" style="">
  <g fill="none" class="nc-icon-wrapper">
    <path d="M8.99911 1C11.2082 1 12.9991 2.79086 12.9991 5V6.02637C13.5582 6.05809 13.9564 6.1285 14.3018 6.29395C14.8429 6.55314 15.2933 6.96925 15.5958 7.4873C15.9394 8.07568 16.0034 8.85279 16.1309 10.4072L16.4434 14.2246C16.478 14.1567 16.5001 14.0814 16.5001 14C16.5001 13.1717 17.1718 12.5002 18.0001 12.5C18.8284 12.5001 19.5001 13.1716 19.5001 14C19.5001 15.6969 18.2923 17.1104 16.6895 17.4307C16.7252 18.2299 16.6862 18.761 16.4903 19.207C16.222 19.8176 15.7577 20.3214 15.171 20.6387C14.5031 20.9999 13.5988 21 11.7901 21H6.21005C4.40141 21 3.49706 20.9999 2.82919 20.6387C2.24251 20.3213 1.77821 19.8177 1.50985 19.207C1.20446 18.5119 1.27797 17.6101 1.42587 15.8076L1.86923 10.4072C1.99677 8.85282 2.06082 8.07567 2.40438 7.4873C2.70696 6.96917 3.15816 6.55313 3.69931 6.29395C4.0442 6.12886 4.44138 6.05814 4.99911 6.02637V5C4.99911 2.79113 6.79034 1.00044 8.99911 1ZM8.99911 3C7.89491 3.00044 6.99911 3.8957 6.99911 5V6H10.9991V5C10.9991 3.89543 10.1037 3 8.99911 3Z" fill="url(#870nx421oam-1752500502802-1862225_shopping_existing_0_1te10ax38)" data-glass="origin" mask="url(#870nx421oam-1752500502802-1862225_shopping_mask_qd56cqze6)"></path>
    <path d="M8.99911 1C11.2082 1 12.9991 2.79086 12.9991 5V6.02637C13.5582 6.05809 13.9564 6.1285 14.3018 6.29395C14.8429 6.55314 15.2933 6.96925 15.5958 7.4873C15.9394 8.07568 16.0034 8.85279 16.1309 10.4072L16.4434 14.2246C16.478 14.1567 16.5001 14.0814 16.5001 14C16.5001 13.1717 17.1718 12.5002 18.0001 12.5C18.8284 12.5001 19.5001 13.1716 19.5001 14C19.5001 15.6969 18.2923 17.1104 16.6895 17.4307C16.7252 18.2299 16.6862 18.761 16.4903 19.207C16.222 19.8176 15.7577 20.3214 15.171 20.6387C14.5031 20.9999 13.5988 21 11.7901 21H6.21005C4.40141 21 3.49706 20.9999 2.82919 20.6387C2.24251 20.3213 1.77821 19.8177 1.50985 19.207C1.20446 18.5119 1.27797 17.6101 1.42587 15.8076L1.86923 10.4072C1.99677 8.85282 2.06082 8.07567 2.40438 7.4873C2.70696 6.96917 3.15816 6.55313 3.69931 6.29395C4.0442 6.12886 4.44138 6.05814 4.99911 6.02637V5C4.99911 2.79113 6.79034 1.00044 8.99911 1ZM8.99911 3C7.89491 3.00044 6.99911 3.8957 6.99911 5V6H10.9991V5C10.9991 3.89543 10.1037 3 8.99911 3Z" fill="url(#870nx421oam-1752500502802-1862225_shopping_existing_0_1te10ax38)" data-glass="clone" filter="url(#870nx421oam-1752500502802-1862225_shopping_filter_r12ngqdqb)" clip-path="url(#870nx421oam-1752500502802-1862225_shopping_clipPath_o0y9bpov8)"></path>
    <path d="M17.504 10C19.0627 10 19.8428 9.99991 20.4571 10.2939C20.9978 10.5528 21.4484 10.9679 21.7511 11.4854C22.0948 12.0732 22.1595 12.8502 22.2882 14.4033L22.5694 17.8037C22.7188 19.6075 22.7935 20.5094 22.4884 21.2051C22.2202 21.8163 21.756 22.321 21.169 22.6387C20.5009 23.0001 19.5959 23 17.7862 23H14.2139C12.4042 23 11.4992 23.0002 10.8311 22.6387C10.2441 22.321 9.77992 21.8163 9.51179 21.2051C9.20662 20.5094 9.28131 19.6075 9.43074 17.8037L9.71199 14.4033C9.84065 12.8502 9.90538 12.0732 10.2491 11.4854C10.5518 10.9678 11.0032 10.5528 11.544 10.2939C12.1582 10.0001 12.9378 10 14.4962 10H17.504ZM18.0001 13C17.4824 13 17.0563 13.3934 17.005 13.8975L16.9952 14.1025C16.9439 14.6067 16.5177 15 16.0001 15C15.4824 15 15.0563 14.6066 15.005 14.1025L14.9952 13.8975C14.9439 13.3933 14.5177 13 14.0001 13C13.4478 13 13.0001 13.4477 13.0001 14C13.0001 15.6568 14.3433 17 16.0001 17C17.6569 17 19.0001 15.6569 19.0001 14C19.0001 13.4477 18.5524 13 18.0001 13Z" fill="url(#870nx421oam-1752500502802-1862225_shopping_existing_1_tgwq2t5py)" data-glass="blur"></path>
    <path d="M14.4961 10C12.9374 10 12.1573 9.99991 11.543 10.2939C11.0024 10.5528 10.5517 10.9679 10.2491 11.4854C9.90536 12.0732 9.84063 12.8502 9.71197 14.4033L9.43072 17.8037C9.28129 19.6075 9.2066 20.5094 9.51177 21.2051C9.77991 21.8163 10.2441 22.321 10.8311 22.6387L10.959 22.7021C11.4405 22.9207 12.0537 22.9786 13.0157 22.9941L14.2139 23V22.25C13.2962 22.25 12.6544 22.2489 12.1573 22.207C11.6683 22.1658 11.3917 22.089 11.1876 21.9785C10.7476 21.7403 10.3993 21.3624 10.1983 20.9043C10.1051 20.6918 10.0516 20.4098 10.0508 19.9189C10.0501 19.42 10.102 18.78 10.1778 17.8652L10.46 14.4658C10.5253 13.6774 10.5704 13.129 10.6397 12.7031C10.7075 12.2863 10.79 12.0464 10.8965 11.8643C11.1235 11.4761 11.4616 11.1649 11.8672 10.9707C12.0576 10.8796 12.3037 10.8174 12.7247 10.7842C13.1548 10.7503 13.7051 10.75 14.4961 10.75L17.504 10.75C18.295 10.75 18.8453 10.7503 19.2754 10.7842C19.6964 10.8174 19.9426 10.8796 20.1329 10.9707C20.5385 11.1649 20.8766 11.4761 21.1036 11.8643C21.2101 12.0464 21.2926 12.2863 21.3604 12.7031C21.4297 13.129 21.4748 13.6774 21.5401 14.4658L21.8223 17.8652C21.8981 18.78 21.95 19.42 21.9493 19.9189C21.9485 20.4098 21.895 20.6918 21.8018 20.9043C21.6008 21.3624 21.2525 21.7403 20.8126 21.9785C20.6085 22.089 20.3319 22.1658 19.8428 22.207C19.3457 22.2489 18.7039 22.25 17.7862 22.25V23C19.483 23 20.3845 23.0001 21.0411 22.7021L21.169 22.6387C21.6828 22.3606 22.1024 21.9392 22.379 21.4287L22.4883 21.2051C22.7172 20.6833 22.7329 20.0455 22.6631 18.998L22.5694 17.8037L22.2881 14.4033C22.1675 12.9475 22.1032 12.174 21.8126 11.5986L21.751 11.4854C21.4484 10.9679 20.9977 10.5528 20.4571 10.2939C19.9964 10.0734 19.4425 10.0187 18.5372 10.0049L17.504 10L14.4961 10ZM14.2139 22.25V23H17.7862V22.25H14.2139Z" fill="url(#870nx421oam-1752500502802-1862225_shopping_existing_2_f4yhq1p56)"></path>
    <defs>
      <linearGradient id="870nx421oam-1752500502802-1862225_shopping_existing_0_1te10ax38" x1="10.399" y1="1" x2="10.399" y2="21" gradientUnits="userSpaceOnUse">
        <stop stop-color="rgba(250, 237, 125, 1)" data-glass-11="on"></stop>
        <stop offset="1" stop-color="rgba(255, 255, 255, 1)" data-glass-12="on"></stop>
      </linearGradient>
      <linearGradient id="870nx421oam-1752500502802-1862225_shopping_existing_1_tgwq2t5py" x1="16" y1="10" x2="16" y2="23" gradientUnits="userSpaceOnUse">
        <stop stop-color="rgba(227, 227, 229, 0.6)" data-glass-21="on"></stop>
        <stop offset="1" stop-color="rgba(187, 187, 192, 0.6)" data-glass-22="on"></stop>
      </linearGradient>
      <linearGradient id="870nx421oam-1752500502802-1862225_shopping_existing_2_f4yhq1p56" x1="16" y1="10" x2="16" y2="17.528" gradientUnits="userSpaceOnUse">
        <stop stop-color="rgba(255, 255, 255, 1)" data-glass-light="on"></stop>
        <stop offset="1" stop-color="rgba(255, 255, 255, 1)" stop-opacity="0" data-glass-light="on"></stop>
      </linearGradient>
      <filter id="870nx421oam-1752500502802-1862225_shopping_filter_r12ngqdqb" x="-100%" y="-100%" width="400%" height="400%" filterUnits="objectBoundingBox" primitiveUnits="userSpaceOnUse">
        <feGaussianBlur stdDeviation="2" x="0%" y="0%" width="100%" height="100%" in="SourceGraphic" edgeMode="none" result="blur"></feGaussianBlur>
      </filter>
      <clipPath id="870nx421oam-1752500502802-1862225_shopping_clipPath_o0y9bpov8">
        <path d="M17.504 10C19.0627 10 19.8428 9.99991 20.4571 10.2939C20.9978 10.5528 21.4484 10.9679 21.7511 11.4854C22.0948 12.0732 22.1595 12.8502 22.2882 14.4033L22.5694 17.8037C22.7188 19.6075 22.7935 20.5094 22.4884 21.2051C22.2202 21.8163 21.756 22.321 21.169 22.6387C20.5009 23.0001 19.5959 23 17.7862 23H14.2139C12.4042 23 11.4992 23.0002 10.8311 22.6387C10.2441 22.321 9.77992 21.8163 9.51179 21.2051C9.20662 20.5094 9.28131 19.6075 9.43074 17.8037L9.71199 14.4033C9.84065 12.8502 9.90538 12.0732 10.2491 11.4854C10.5518 10.9678 11.0032 10.5528 11.544 10.2939C12.1582 10.0001 12.9378 10 14.4962 10H17.504ZM18.0001 13C17.4824 13 17.0563 13.3934 17.005 13.8975L16.9952 14.1025C16.9439 14.6067 16.5177 15 16.0001 15C15.4824 15 15.0563 14.6066 15.005 14.1025L14.9952 13.8975C14.9439 13.3933 14.5177 13 14.0001 13C13.4478 13 13.0001 13.4477 13.0001 14C13.0001 15.6568 14.3433 17 16.0001 17C17.6569 17 19.0001 15.6569 19.0001 14C19.0001 13.4477 18.5524 13 18.0001 13Z" fill="url(#870nx421oam-1752500502802-1862225_shopping_existing_1_tgwq2t5py)"></path>
      </clipPath>
      <mask id="870nx421oam-1752500502802-1862225_shopping_mask_qd56cqze6">
        <rect width="100%" height="100%" fill="#FFF"></rect>
        <path d="M17.504 10C19.0627 10 19.8428 9.99991 20.4571 10.2939C20.9978 10.5528 21.4484 10.9679 21.7511 11.4854C22.0948 12.0732 22.1595 12.8502 22.2882 14.4033L22.5694 17.8037C22.7188 19.6075 22.7935 20.5094 22.4884 21.2051C22.2202 21.8163 21.756 22.321 21.169 22.6387C20.5009 23.0001 19.5959 23 17.7862 23H14.2139C12.4042 23 11.4992 23.0002 10.8311 22.6387C10.2441 22.321 9.77992 21.8163 9.51179 21.2051C9.20662 20.5094 9.28131 19.6075 9.43074 17.8037L9.71199 14.4033C9.84065 12.8502 9.90538 12.0732 10.2491 11.4854C10.5518 10.9678 11.0032 10.5528 11.544 10.2939C12.1582 10.0001 12.9378 10 14.4962 10H17.504ZM18.0001 13C17.4824 13 17.0563 13.3934 17.005 13.8975L16.9952 14.1025C16.9439 14.6067 16.5177 15 16.0001 15C15.4824 15 15.0563 14.6066 15.005 14.1025L14.9952 13.8975C14.9439 13.3933 14.5177 13 14.0001 13C13.4478 13 13.0001 13.4477 13.0001 14C13.0001 15.6568 14.3433 17 16.0001 17C17.6569 17 19.0001 15.6569 19.0001 14C19.0001 13.4477 18.5524 13 18.0001 13Z" fill="#000"></path>
      </mask>
    </defs>
  </g>
</svg>